<?xml version="1.0" encoding="UTF-8"?>
<svg version="1.1" xmlns="http://www.w3.org/2000/svg" width="256" height="256">
<path d="M0 0 C84.48 0 168.96 0 256 0 C256 84.48 256 168.96 256 256 C171.52 256 87.04 256 0 256 C0 171.52 0 87.04 0 0 Z " fill="#FDE99F" transform="translate(0,0)"/>
<path d="M0 0 C21.82898533 18.20957454 35.62643352 43.39834724 39.28320312 71.61376953 C39.55424224 75.18007373 39.65152087 78.72526083 39.65820312 82.30126953 C39.66062012 83.52027954 39.66062012 83.52027954 39.66308594 84.76391602 C39.56536692 90.01522769 38.69577881 94.55768682 37.28320312 99.61376953 C37.06019531 100.63341797 36.8371875 101.65306641 36.60742188 102.70361328 C34.00742637 114.33181402 28.66781733 124.5088959 18.63867188 131.44189453 C7.85745126 137.65429019 -4.2809139 139.75770485 -16.58789062 136.96142578 C-27.26183345 133.08150585 -34.81946765 125.8017368 -39.71679688 115.61376953 C-43.23212594 107.13592485 -43.26030947 98.50921815 -43.40429688 89.48876953 C-43.43754385 88.04082343 -43.47204005 86.59290544 -43.5078125 85.14501953 C-43.59186036 81.63480948 -43.65906052 78.12452261 -43.71679688 74.61376953 C-44.25252319 75.43784302 -44.25252319 75.43784302 -44.79907227 76.27856445 C-46.44589407 78.79509495 -48.11231241 81.29805409 -49.77929688 83.80126953 C-50.34068359 84.66558594 -50.90207031 85.52990234 -51.48046875 86.42041016 C-54.85293075 91.45019634 -58.06608914 96.05412656 -63.71679688 98.61376953 C-67.43554687 99.24267578 -67.43554687 99.24267578 -71.21679688 99.17626953 C-72.46460937 99.17755859 -73.71242188 99.17884766 -74.99804688 99.18017578 C-80.47092966 98.34659595 -83.93627153 96.7064649 -87.48388672 92.53686523 C-89.29385837 90.06942954 -90.98665976 87.5543651 -92.65429688 84.98876953 C-93.24275391 84.11736328 -93.83121094 83.24595703 -94.4375 82.34814453 C-98.71679688 75.92671415 -98.71679688 75.92671415 -98.71679688 73.61376953 C-99.37679687 73.61376953 -100.03679687 73.61376953 -100.71679688 73.61376953 C-100.71679688 91.43376953 -100.71679688 109.25376953 -100.71679688 127.61376953 C-106.98679687 127.61376953 -113.25679688 127.61376953 -119.71679688 127.61376953 C-119.8072682 118.46015944 -119.88061067 109.30684768 -119.92404556 100.15289116 C-119.94489515 95.90205104 -119.97316421 91.65153343 -120.01855469 87.40087891 C-120.06210705 83.29653898 -120.08595375 79.1925087 -120.09630585 75.08795547 C-120.10368045 73.52427422 -120.11808154 71.96060936 -120.1397171 70.39706039 C-120.1688775 68.20183828 -120.17274784 66.00788552 -120.17089844 63.8125 C-120.17978088 62.5645163 -120.18866333 61.31653259 -120.19781494 60.0307312 C-119.46007774 54.79013857 -116.99481594 51.73964347 -113.09179688 48.30126953 C-109.83034737 45.98392383 -107.99249933 45.41658476 -104.02929688 45.30126953 C-102.78599609 45.24519531 -102.78599609 45.24519531 -101.51757812 45.18798828 C-96.64618134 45.9285493 -93.21277565 47.86037083 -90.05395508 51.56274414 C-88.36243252 53.91056418 -86.77760095 56.30217963 -85.21679688 58.73876953 C-84.08820185 60.44600656 -82.95929817 62.15303959 -81.83007812 63.85986328 C-81.29592285 64.67825684 -80.76176758 65.49665039 -80.21142578 66.33984375 C-78.3303951 69.2016405 -76.38028445 72.00430138 -74.40429688 74.80126953 C-73.87191406 75.55794922 -73.33953125 76.31462891 -72.79101562 77.09423828 C-72.43652344 77.59568359 -72.08203125 78.09712891 -71.71679688 78.61376953 C-66.25593725 71.5304806 -61.08525262 64.36770343 -56.34423828 56.77954102 C-53.09459059 51.73153803 -49.59120394 47.57190522 -43.71679688 45.61376953 C-37.93848278 45.04726815 -33.29584873 46.03133484 -28.71679688 49.61376953 C-23.70105097 55.35078017 -23.01571087 59.29739807 -23.15039062 66.78955078 C-23.14193871 68.23735176 -23.14193871 68.23735176 -23.13331604 69.71440125 C-23.11692758 72.78552377 -23.1323417 75.85519837 -23.15429688 78.92626953 C-23.17097189 81.98649661 -23.17986147 85.04575938 -23.16456604 88.10600281 C-23.15539554 90.00380299 -23.16407757 91.90180941 -23.19419861 93.7993927 C-23.1655225 100.82858947 -21.86842967 107.85507672 -17.22654724 113.3910675 C-13.68675285 116.68737904 -9.99390794 116.99619758 -5.27929688 117.17626953 C2.20703438 116.85825087 6.61248895 115.04708689 12.09570312 110.05126953 C19.91502631 99.67816066 19.54658748 81.83590671 18.01513672 69.44482422 C14.36470809 47.02592591 1.9737525 26.60370084 -16.27929688 13.05126953 C-25.50732316 6.86560816 -35.97622123 1.52940185 -46.71679688 -1.38623047 C-47.3393335 -1.56323486 -47.96187012 -1.74023926 -48.60327148 -1.92260742 C-55.49430641 -3.68104397 -62.25985823 -3.73151722 -69.34179688 -3.69873047 C-70.58638672 -3.69381592 -71.83097656 -3.68890137 -73.11328125 -3.68383789 C-86.71354604 -3.51054649 -98.3864432 -1.36458377 -110.71679688 4.61376953 C-111.65265625 5.06751953 -112.58851562 5.52126953 -113.55273438 5.98876953 C-134.80056176 16.9400307 -150.24319329 36.04063868 -157.71289062 58.62548828 C-164.38441026 82.02368871 -162.25727164 108.18303614 -150.71679688 129.61376953 C-138.10872442 151.30959387 -119.25626676 166.05052081 -95.27929688 172.92626953 C-87.47122678 174.85347327 -79.70475651 175.76549063 -71.71679688 176.61376953 C-71.71679688 182.88376953 -71.71679688 189.15376953 -71.71679688 195.61376953 C-100.58420841 196.8474196 -126.32522909 185.45829889 -147.74414062 166.43798828 C-152.26805021 162.25261239 -156.04077642 157.54661121 -159.71679688 152.61376953 C-160.3071875 151.87255859 -160.89757812 151.13134766 -161.50585938 150.36767578 C-175.5017906 131.93011342 -182.1382469 108.74327527 -182.02929688 85.86376953 C-182.02365723 84.62530273 -182.01801758 83.38683594 -182.01220703 82.11083984 C-181.62931382 53.26116312 -169.20783325 27.5949317 -149.46679688 6.92626953 C-108.73881743 -32.37566021 -44.18638025 -35.67836562 0 0 Z " fill="#3F3E3E" transform="translate(197.716796875,40.38623046875)"/>
<path d="M0 0 C0 3 0 3 -1.46875 4.80932617 C-2.1390625 5.46392822 -2.809375 6.11853027 -3.5 6.79296875 C-4.221875 7.50517578 -4.94375 8.21738281 -5.6875 8.95117188 C-6.450625 9.68916016 -7.21375 10.42714844 -8 11.1875 C-9.1446875 12.31188477 -9.1446875 12.31188477 -10.3125 13.45898438 C-12.20180839 15.31286823 -14.09775206 17.15941069 -16 19 C-16.66 18.67 -17.32 18.34 -18 18 C-12.37361021 11.50903494 -6.55902307 5.55113536 0 0 Z " fill="#464541" transform="translate(57,40)"/>
</svg>
