<?xml version="1.0" encoding="UTF-8"?>
<svg version="1.1" xmlns="http://www.w3.org/2000/svg" width="512" height="512">
<path d="M0 0 C0.73574302 -0.00155999 1.47148605 -0.00311998 2.22952431 -0.00472724 C4.70814593 -0.00873272 7.18670685 -0.00554919 9.66532898 -0.00241089 C11.43761226 -0.00376526 13.20989527 -0.00554539 14.98217773 -0.00772095 C19.80923149 -0.01229468 24.63626396 -0.010505 29.46331811 -0.00734186 C34.51813837 -0.00481362 39.57295677 -0.0071575 44.6277771 -0.00872803 C53.12955553 -0.01055019 61.6313253 -0.0081441 70.13310242 -0.00338745 C79.93948737 0.00203604 89.74585147 0.00030668 99.5522359 -0.00521386 C107.97873846 -0.00976667 116.40523478 -0.01038437 124.83173817 -0.00777519 C129.86067145 -0.00622184 134.88959497 -0.00599232 139.9185276 -0.00931168 C144.65858485 -0.01222123 149.39861556 -0.01015852 154.13866997 -0.00441742 C155.86993491 -0.00310543 157.60120212 -0.00345709 159.33246613 -0.00568008 C167.974117 -0.01574438 176.51447336 0.09984525 185.12767315 0.91278267 C189.02352895 1.20976983 192.88966146 1.15592383 196.79301453 1.06448364 C198.93754578 1.12698364 198.93754578 1.12698364 200.93754578 2.12698364 C202.37505184 2.14739448 203.81341232 2.11856313 205.25004578 2.06448364 C227.11498962 1.87544955 247.89794766 10.82334019 264.93754578 24.12698364 C266.27450064 25.45668558 267.60845194 26.78942425 268.93754578 28.12698364 C269.59754578 28.45698364 270.25754578 28.78698364 270.93754578 29.12698364 C270.93754578 30.11698364 270.93754578 31.10698364 270.93754578 32.12698364 C272.25754578 32.78698364 273.57754578 33.44698364 274.93754578 34.12698364 C274.93754578 34.78698364 274.93754578 35.44698364 274.93754578 36.12698364 C275.59754578 36.12698364 276.25754578 36.12698364 276.93754578 36.12698364 C277.53567078 37.22010864 278.13379578 38.31323364 278.75004578 39.43948364 C279.9366906 41.5350479 280.91483832 43.10427619 282.62504578 44.81448364 C284.27719782 46.46663569 284.54653293 47.85910914 284.93754578 50.12698364 C285.59754578 50.12698364 286.25754578 50.12698364 286.93754578 50.12698364 C292.65834358 61.61547104 295.82405173 73.04784781 297.62504578 85.68948364 C297.74444519 86.50779663 297.8638446 87.32610962 297.98686218 88.16921997 C300.18198895 104.99799575 300.08800557 122.13016843 300.08280945 139.072052 C300.08581238 141.06898561 300.08921745 143.06591864 300.09298706 145.06285095 C300.10171244 150.41828881 300.10416016 155.77371064 300.10480285 161.12915492 C300.10551951 164.49018881 300.10766523 167.85121876 300.11030006 171.21225166 C300.119513 182.97997415 300.12363975 194.7476854 300.12284851 206.51541138 C300.12224766 217.41890714 300.13281149 228.32235344 300.14859217 239.22583669 C300.16173361 248.64733513 300.16702971 258.06881752 300.1663931 267.49032503 C300.16614021 273.09104542 300.16887512 278.69172168 300.17957115 284.29243279 C300.18936525 289.56300865 300.18925522 294.83349914 300.18205452 300.10407829 C300.18102282 302.01863736 300.18328531 303.93320208 300.18941498 305.84775162 C300.32954556 352.71508107 300.32954556 352.71508107 291.02348328 372.70901489 C290.05804428 374.85867942 289.41980345 376.82822207 288.93754578 379.12698364 C288.27754578 379.12698364 287.61754578 379.12698364 286.93754578 379.12698364 C286.75192078 379.93135864 286.56629578 380.73573364 286.37504578 381.56448364 C284.71550935 385.67724782 282.45826273 388.52727317 279.67582703 391.94338989 C278.22116827 393.7707028 276.9687692 395.57859568 275.75004578 397.56448364 C273.88619304 400.19958579 272.78912763 400.84868833 269.93754578 402.12698364 C269.60754578 403.11698364 269.27754578 404.10698364 268.93754578 405.12698364 C267.94754578 405.12698364 266.95754578 405.12698364 265.93754578 405.12698364 C265.53342468 406.02803833 265.53342468 406.02803833 265.12113953 406.94729614 C261.68941002 413.26711484 254.73240344 416.53596168 248.58598328 419.73245239 C245.93445965 421.08104238 245.93445965 421.08104238 243.51957703 422.67385864 C233.31341758 428.41771842 219.7486144 430.07621324 208.18754578 430.88088989 C205.55893464 431.07993136 202.95744204 431.34461072 200.33824921 431.63400745 C195.30311516 432.13900223 190.33351122 432.2700426 185.27629089 432.26069641 C184.357564 432.26296197 183.4388371 432.26522752 182.49226999 432.26756173 C179.44211442 432.27384499 176.39200394 432.27307604 173.34184265 432.27224731 C171.14299971 432.27524243 168.94415729 432.27864577 166.74531555 432.28242493 C160.79034077 432.29123521 154.83538037 432.29360185 148.8803997 432.29424071 C145.1524427 432.29495313 141.42448931 432.29709112 137.6965332 432.29973793 C125.34051365 432.30850647 112.98450173 432.31315886 100.62847918 432.31240746 C99.96380124 432.3123675 99.29912329 432.31232754 98.61430359 432.31228638 C97.94880125 432.3122455 97.28329892 432.31220462 96.59762985 432.3121625 C85.83071109 432.31175671 75.06382743 432.32131153 64.29691881 432.33542474 C53.2065708 432.34984558 42.11624068 432.35650932 31.0258832 432.35583097 C24.81367705 432.35557714 18.6015106 432.35836394 12.38931274 432.36900902 C6.53860925 432.37876122 0.68798282 432.37872083 -5.16272354 432.37149239 C-7.29664855 432.3704552 -9.43057853 432.37275721 -11.56449509 432.37885284 C-36.37410974 432.44506859 -60.62496803 430.6938023 -83.06245422 419.12698364 C-83.06245422 418.46698364 -83.06245422 417.80698364 -83.06245422 417.12698364 C-83.61932922 417.02385864 -84.17620422 416.92073364 -84.74995422 416.81448364 C-87.53936433 415.98519956 -89.67636063 414.78399309 -92.06245422 413.12698364 C-92.06245422 412.46698364 -92.06245422 411.80698364 -92.06245422 411.12698364 C-92.63479797 410.86917114 -93.20714172 410.61135864 -93.79682922 410.34573364 C-96.27374417 409.01332422 -98.19657083 407.47642246 -100.31245422 405.62698364 C-101.01886047 405.01854614 -101.72526672 404.41010864 -102.45307922 403.78323364 C-104.06245422 402.12698364 -104.06245422 402.12698364 -104.06245422 400.12698364 C-105.38245422 399.46698364 -106.70245422 398.80698364 -108.06245422 398.12698364 C-108.06245422 397.46698364 -108.06245422 396.80698364 -108.06245422 396.12698364 C-109.05245422 395.79698364 -110.04245422 395.46698364 -111.06245422 395.12698364 C-111.75903786 393.47259751 -112.42342305 391.80444046 -113.06245422 390.12698364 C-113.51749329 389.69385864 -113.97253235 389.26073364 -114.44136047 388.81448364 C-116.5652537 386.60358757 -117.65883505 384.2553689 -118.99995422 381.50198364 C-119.48335266 380.51971802 -119.9667511 379.53745239 -120.46479797 378.52542114 C-120.99202454 377.40393677 -121.5192511 376.28245239 -122.06245422 375.12698364 C-122.56023376 374.11039673 -122.56023376 374.11039673 -123.06806946 373.07327271 C-125.69227746 367.5207246 -127.15100348 362.15498351 -128.24995422 356.12698364 C-128.41430969 355.28909302 -128.57866516 354.45120239 -128.7480011 353.58792114 C-130.09434969 346.54548237 -131.27317414 339.44280075 -131.06245422 332.25198364 C-130.98058171 329.39667973 -131.13283499 327.91584133 -132.06245422 325.12698364 C-132.15869048 322.26454408 -132.19711284 319.42662676 -132.18943787 316.56411743 C-132.19099786 315.67910097 -132.19255785 314.7940845 -132.19416511 313.88224936 C-132.1981666 310.90456592 -132.19498864 307.92693312 -132.19184875 304.94924927 C-132.19320325 302.81889821 -132.19498345 300.68854739 -132.19715881 298.55819702 C-132.20172961 292.76029451 -132.19994444 286.96240974 -132.19677973 281.16450691 C-132.19425169 275.09710771 -132.19659515 269.02971005 -132.19816589 262.96231079 C-132.1999874 252.76329272 -132.19758294 242.56428187 -132.19282532 232.36526489 C-132.18739439 220.58716325 -132.18913691 208.80907894 -132.19465172 197.03097773 C-132.19919733 186.91702708 -132.19982596 176.80308164 -132.19721305 166.68913031 C-132.19565675 160.64976054 -132.19543857 154.6103989 -132.19874954 148.57102966 C-132.20164885 142.88461247 -132.19961479 137.19821748 -132.19385529 131.51180267 C-132.19253821 129.4297718 -132.19290383 127.34773904 -132.19511795 125.26570892 C-132.21451823 105.16097451 -132.21451823 105.16097451 -131.06245422 96.12698364 C-130.89643802 94.7608279 -130.89643802 94.7608279 -130.72706795 93.36707306 C-128.55701054 75.88925834 -124.82344968 61.0156544 -115.99995422 45.68948364 C-115.27098938 44.42297974 -115.27098938 44.42297974 -114.52729797 43.13088989 C-113.06245422 41.12698364 -113.06245422 41.12698364 -110.06245422 40.12698364 C-109.62932922 39.01323364 -109.62932922 39.01323364 -109.18745422 37.87698364 C-107.77025589 34.41272106 -105.79255811 32.66661517 -103.06245422 30.12698364 C-102.23745422 29.28135864 -101.41245422 28.43573364 -100.56245422 27.56448364 C-95.36562915 22.4975792 -89.50666035 18.32808384 -82.99604797 15.10354614 C-80.83780451 14.07001382 -80.83780451 14.07001382 -78.18745422 12.12698364 C-75.07623256 10.13580178 -72.59607722 9.14629797 -69.06245422 8.12698364 C-68.0183136 7.79053833 -68.0183136 7.79053833 -66.95307922 7.44729614 C-49.61394727 1.95090464 -32.76796619 0.88271211 -14.72358704 1.1633606 C-9.61891927 1.2250641 -5.15520395 -0.01658327 0 0 Z " fill="#FDDC90" transform="translate(172.0624542236328,44.873016357421875)"/>
<path d="M0 0 C2.95143469 2.62997299 5.78339327 5.37655265 8.61328125 8.13671875 C9.88558594 9.29880859 9.88558594 9.29880859 11.18359375 10.484375 C27.76492107 26.05211021 39.44326669 48.40987161 45.61328125 70.13671875 C45.82210938 70.85778809 46.0309375 71.57885742 46.24609375 72.32177734 C53.05140787 96.94258547 53.34351748 130.27139086 40.61328125 153.13671875 C37.16189272 158.30983443 33.18438196 162.91724118 28.61328125 167.13671875 C27.72640625 167.96171875 26.83953125 168.78671875 25.92578125 169.63671875 C21.93602902 172.91327693 17.29359017 175.02279158 12.61328125 177.13671875 C11.83082031 177.49378906 11.04835938 177.85085938 10.2421875 178.21875 C-0.39144349 181.93183066 -15.62526959 181.92960462 -25.94140625 177.38671875 C-26.74835938 176.97421875 -27.5553125 176.56171875 -28.38671875 176.13671875 C-29.23492187 175.72421875 -30.083125 175.31171875 -30.95703125 174.88671875 C-43.51441366 168.12800528 -50.90557536 156.65978303 -55.0078125 143.26953125 C-57.46758343 133.0426458 -56.96550552 122.34352398 -57.07421875 111.88671875 C-57.10744299 109.6770637 -57.14193724 107.46742736 -57.17773438 105.2578125 C-57.2620518 99.8842429 -57.33064199 94.5106534 -57.38671875 89.13671875 C-58.29381592 90.50606567 -58.29381592 90.50606567 -59.21923828 91.90307617 C-61.47997101 95.31052407 -63.75282402 98.7097415 -66.02929688 102.10668945 C-67.01012674 103.57389592 -67.98772119 105.04327092 -68.96191406 106.51489258 C-70.36835112 108.63820987 -71.78650457 110.75327837 -73.20703125 112.8671875 C-73.6354129 113.51946823 -74.06379456 114.17174896 -74.50515747 114.84379578 C-78.84971002 121.2601966 -83.81990676 125.77984288 -91.38671875 128.13671875 C-98.7969726 129.07155077 -106.03430882 128.28501918 -112.38671875 124.13671875 C-117.79297361 118.8616365 -121.82363037 112.3104659 -126.01171875 106.07421875 C-126.99398437 104.62305664 -126.99398437 104.62305664 -127.99609375 103.14257812 C-131.14497825 98.4861811 -134.26862315 93.81386215 -137.38671875 89.13671875 C-137.71671875 115.53671875 -138.04671875 141.93671875 -138.38671875 169.13671875 C-145.64671875 169.13671875 -152.90671875 169.13671875 -160.38671875 169.13671875 C-160.49980654 156.88844137 -160.59148544 144.64051234 -160.64577961 132.39183044 C-160.67184181 126.70389363 -160.70717887 121.01633339 -160.76391602 115.32861328 C-160.81835518 109.8367138 -160.84816469 104.34517589 -160.86110497 98.85302734 C-160.8703234 96.76068431 -160.88832505 94.66836044 -160.91536903 92.57617188 C-160.95181711 89.63889237 -160.95665745 86.70309528 -160.9543457 83.765625 C-160.97232208 82.90606705 -160.99029846 82.04650909 -161.00881958 81.16090393 C-160.95035746 74.26841219 -158.6633112 69.52166189 -153.8730669 64.57301331 C-149.63414594 60.8131828 -146.15805945 59.99126568 -140.63671875 59.82421875 C-139.43789062 59.76814453 -139.43789062 59.76814453 -138.21484375 59.7109375 C-132.68854986 60.54293478 -128.58286513 62.84675697 -124.796875 66.9296875 C-123.99602495 68.04832184 -123.21442348 69.18090545 -122.44921875 70.32421875 C-121.79409302 71.25947388 -121.79409302 71.25947388 -121.12573242 72.21362305 C-120.12273443 73.65436081 -119.12900422 75.1015767 -118.14257812 76.55371094 C-116.46846569 79.01646254 -114.7765117 81.46626944 -113.07972717 83.91343689 C-111.11238977 86.75377532 -109.1553858 89.60118068 -107.19921875 92.44921875 C-106.61746384 93.29400284 -106.61746384 93.29400284 -106.0239563 94.15585327 C-104.91708946 95.76705567 -103.81775986 97.38342811 -102.71875 99 C-102.07655518 99.94141846 -101.43436035 100.88283691 -100.77270508 101.8527832 C-99.38671875 104.13671875 -99.38671875 104.13671875 -99.38671875 106.13671875 C-98.06671875 106.13671875 -96.74671875 106.13671875 -95.38671875 106.13671875 C-95.11666016 105.40114746 -94.84660156 104.66557617 -94.56835938 103.90771484 C-93.43037837 101.23910237 -92.16357265 99.15342176 -90.48046875 96.80078125 C-89.90627197 95.99068604 -89.3320752 95.18059082 -88.74047852 94.34594727 C-88.12873779 93.49315186 -87.51699707 92.64035645 -86.88671875 91.76171875 C-81.5603839 84.29818346 -81.5603839 84.29818346 -76.484375 76.6640625 C-76.05125 75.98972168 -75.618125 75.31538086 -75.171875 74.62060547 C-74.38606608 73.38571805 -73.610401 72.14428453 -72.84765625 70.89501953 C-69.49182878 65.6477532 -65.28369304 62.10237685 -59.38671875 60.13671875 C-52.10286026 59.64289784 -46.8563728 61.00761285 -40.63671875 64.82421875 C-34.67483204 70.95171343 -33.9404733 76.74902685 -33.96061707 84.98440552 C-33.98134781 86.23349701 -34.00207855 87.4825885 -34.0234375 88.76953125 C-34.02353757 90.77121938 -34.02359486 92.77290847 -34.02127552 94.77459526 C-34.02177051 99.66932336 -34.06495371 104.56365271 -34.12231445 109.45800781 C-35.14521505 131.10115992 -35.14521505 131.10115992 -26.38671875 150.13671875 C-19.7914003 155.90085889 -14.2531761 157.43923587 -5.59375 157.35546875 C3.33672408 156.74632557 10.61989024 153.53942598 16.73828125 146.94921875 C28.64151861 132.12456021 28.16646119 108.81882588 26.38623047 90.84423828 C25.79990404 86.50831815 24.80132052 82.34276101 23.61328125 78.13671875 C23.27296875 76.92242187 22.93265625 75.708125 22.58203125 74.45703125 C12.67260774 42.25140483 -9.55495215 16.78019232 -39.24365234 1.02636719 C-68.82875799 -13.82214737 -104.06769902 -16.53579636 -135.57421875 -6.578125 C-168.64738366 4.62749343 -194.3520989 28.1637433 -210.01953125 59.125 C-213.62742205 66.54887394 -216.22773666 74.18160051 -218.38671875 82.13671875 C-218.89525391 83.98523438 -218.89525391 83.98523438 -219.4140625 85.87109375 C-226.91813078 118.65384365 -218.7892331 152.23904866 -201.49658203 180.41064453 C-198.79467871 184.61268071 -195.68676443 188.3970917 -192.38671875 192.13671875 C-191.67773438 192.96558594 -190.96875 193.79445313 -190.23828125 194.6484375 C-167.28739914 220.94129016 -136.79410502 233.90097751 -102.32421875 236.82421875 C-100.69484375 236.92734375 -99.06546875 237.03046875 -97.38671875 237.13671875 C-97.38671875 244.39671875 -97.38671875 251.65671875 -97.38671875 259.13671875 C-109.63198254 259.6265293 -120.47985508 257.90460736 -132.38671875 255.13671875 C-133.40813965 254.91242188 -133.40813965 254.91242188 -134.45019531 254.68359375 C-155.70365569 249.99676635 -177.4552283 239.03764092 -193.38671875 224.13671875 C-194.34578125 223.24122314 -194.34578125 223.24122314 -195.32421875 222.32763672 C-213.99930369 204.68671894 -227.60453291 185.32813864 -236.38671875 161.13671875 C-236.76570313 160.14414062 -237.1446875 159.1515625 -237.53515625 158.12890625 C-246.76558364 132.65847878 -246.94602376 103.12411583 -240.38671875 77.13671875 C-240.08095601 75.80262597 -239.77745715 74.46801167 -239.4765625 73.1328125 C-233.71708756 49.22226502 -220.61661172 28.21411194 -203.74511719 10.5625 C-202.48007233 9.2347031 -201.23339365 7.88947467 -199.98828125 6.54296875 C-148.17076008 -47.85682092 -55.76950671 -48.14262284 0 0 Z " fill="#3F3E3D" transform="translate(353.38671875,143.86328125)"/>
<path d="M0 0 C1.485 0.99 1.485 0.99 3 2 C3 2.66 3 3.32 3 4 C3.61875 4.28875 4.2375 4.5775 4.875 4.875 C7 6 7 6 9 8 C9 9.32 9 10.64 9 12 C9.33 12.66 9.66 13.32 10 14 C9.34 14 8.68 14 8 14 C8.33 14.66 8.66 15.32 9 16 C10.65 15.67 12.3 15.34 14 15 C14.33 16.32 14.66 17.64 15 19 C13.35 19.66 11.7 20.32 10 21 C10 21.66 10 22.32 10 23 C10.99 23.33 11.98 23.66 13 24 C14.18977808 25.68551895 15.37561492 27.37419373 16.52734375 29.0859375 C18.57047599 31.74146747 21.01113976 33.68884011 23.64453125 35.73828125 C24.09183594 36.15464844 24.53914063 36.57101562 25 37 C25 37.66 25 38.32 25 39 C26.485 39.495 26.485 39.495 28 40 C28.6875 42.0625 28.6875 42.0625 29 44 C29.94875 44.0825 30.8975 44.165 31.875 44.25 C35 45 35 45 36.375 47.0625 C36.58125 47.701875 36.7875 48.34125 37 49 C33.51669784 48.35494404 30.90567134 47.01782732 28 45 C28 44.34 28 43.68 28 43 C27.42765625 42.7421875 26.8553125 42.484375 26.265625 42.21875 C23.78871005 40.88634058 21.8658834 39.34943882 19.75 37.5 C19.04359375 36.8915625 18.3371875 36.283125 17.609375 35.65625 C16 34 16 34 16 32 C14.68 31.34 13.36 30.68 12 30 C12 29.34 12 28.68 12 28 C11.01 27.67 10.02 27.34 9 27 C8.30341637 25.34561387 7.63903117 23.67745682 7 22 C6.00699765 20.99305098 5.00608626 19.99387647 4 19 C0.46049543 14.24500622 -1.43532389 10.4439112 -0.8125 4.4375 C-0.5707806 2.9532977 -0.3102541 1.47140311 0 0 Z " fill="#FFDA8B" transform="translate(52,413)"/>
<path d="M0 0 C4.28920669 4.28920669 3.12913825 12.7721408 3.13671875 18.53710938 C3.13285156 19.53548828 3.12898438 20.53386719 3.125 21.5625 C3.12886719 22.56474609 3.13273437 23.56699219 3.13671875 24.59960938 C3.12981699 29.8414976 2.91258258 34.83594141 2 40 C3.98 39.505 3.98 39.505 6 39 C5.505 41.475 5.505 41.475 5 44 C4.34 44 3.68 44 3 44 C2.814375 45.134375 2.62875 46.26875 2.4375 47.4375 C2.33308594 48.07558594 2.22867188 48.71367187 2.12109375 49.37109375 C1.9815456 52.40063903 2.39114407 55.27024873 2.75756836 58.27319336 C3.25383185 63.85503318 3.10119595 69.46349387 3.0625 75.0625 C3.05798828 76.30966797 3.05347656 77.55683594 3.04882812 78.84179688 C3.03713163 81.89458221 3.02074086 84.94726498 3 88 C2.34 88 1.68 88 1 88 C1.495 89.1446875 1.495 89.1446875 2 90.3125 C4.10225747 98.06457444 3.03259691 106.12644856 2 114 C0 112 0 112 -0.24609566 110.00475883 C-0.24425207 109.18067591 -0.24240849 108.35659298 -0.24050903 107.50753784 C-0.24325836 106.56240326 -0.24600769 105.61726868 -0.24884033 104.64349365 C-0.24164978 103.60340149 -0.23445923 102.56330933 -0.22705078 101.49169922 C-0.22734283 100.39900726 -0.22763489 99.30631531 -0.22793579 98.18051147 C-0.22653825 94.55515708 -0.21095699 90.93000615 -0.1953125 87.3046875 C-0.19158388 84.79647941 -0.1887362 82.28826988 -0.18673706 79.78005981 C-0.17987119 73.84437714 -0.16409528 67.90876016 -0.14403808 61.97311127 C-0.11951013 54.55370182 -0.1087526 47.13428335 -0.09765625 39.71484375 C-0.07618515 26.47652514 -0.04241739 13.23826721 0 0 Z " fill="#FFFFBC" transform="translate(40,258)"/>
<path d="M0 0 C23.1 0 46.2 0 70 0 C70 0.99 70 1.98 70 3 C68 5 68 5 64.3046875 5.1953125 C62.82799892 5.182009 61.35137642 5.15814835 59.875 5.125 C59.12089844 5.11597656 58.36679687 5.10695313 57.58984375 5.09765625 C55.72642746 5.0740687 53.86317407 5.03819719 52 5 C52 4.67 52 4.34 52 4 C47.50621438 3.1574152 44.0026027 3.05097767 39.44140625 3.73828125 C33.14404073 4.41335883 26.40125175 4.60269434 20.15625 3.49609375 C15.96029789 2.83658148 11.86412377 2.89355374 7.625 2.9375 C6.37783203 2.94426758 6.37783203 2.94426758 5.10546875 2.95117188 C3.07028103 2.96286836 1.03513077 2.98080065 -1 3 C-0.67 2.01 -0.34 1.02 0 0 Z " fill="#FFFFB7" transform="translate(240,45)"/>
<path d="M0 0 C0.66 0.33 1.32 0.66 2 1 C2.40632091 2.98645776 2.72949547 4.99053778 3 7 C3.17200928 7.74660889 3.34401855 8.49321777 3.52124023 9.26245117 C4.09928579 12.56771624 4.11193545 15.69516887 4.09765625 19.05078125 C4.0962413 19.70958786 4.09482635 20.36839447 4.09336853 21.04716492 C4.087805 23.13565762 4.07525947 25.22404011 4.0625 27.3125 C4.05748028 28.73502449 4.0529182 30.15755066 4.04882812 31.58007812 C4.03784757 35.05342077 4.02060835 38.52669961 4 42 C3.01 41.67 2.02 41.34 1 41 C-1.21803143 35.6420393 -2.47015441 29.79857107 -2 24 C-2.33 24 -2.66 24 -3 24 C-3.09087891 22.62714844 -3.09087891 22.62714844 -3.18359375 21.2265625 C-3.26738281 20.03804687 -3.35117187 18.84953125 -3.4375 17.625 C-3.51871094 16.44164062 -3.59992188 15.25828125 -3.68359375 14.0390625 C-3.81084936 11.08481099 -3.81084936 11.08481099 -5 9 C-4.01 8.01 -3.02 7.02 -2 6 C-1.67 6.99 -1.34 7.98 -1 9 C-0.67 6.03 -0.34 3.06 0 0 Z " fill="#FFDD8F" transform="translate(468,159)"/>
<path d="M0 0 C2 2 2 2 2.24050903 4.10073853 C2.23606781 4.96677704 2.23162659 5.83281555 2.22705078 6.72509766 C2.22689972 7.70596344 2.22674866 8.68682922 2.22659302 9.69741821 C2.21627045 10.75891083 2.20594788 11.82040344 2.1953125 12.9140625 C2.1924826 13.99883881 2.18965271 15.08361511 2.18673706 16.20126343 C2.17551578 19.67595313 2.15040762 23.15038782 2.125 26.625 C2.11497272 28.97655879 2.10584643 31.3281216 2.09765625 33.6796875 C2.07557011 39.45321244 2.04207345 45.22658801 2 51 C0.35 51.66 -1.3 52.32 -3 53 C-3 35 -3 35 -2.4375 31.875 C-2.293125 30.92625 -2.14875 29.9775 -2 29 C-2.33 28.67 -2.66 28.34 -3 28 C-3.04063832 26.33382885 -3.042721 24.66611905 -3 23 C-2.34 23.99 -1.68 24.98 -1 26 C-0.67 21.38 -0.34 16.76 0 12 C-0.66 12 -1.32 12 -2 12 C-2.33 10.35 -2.66 8.7 -3 7 C-2.34 7 -1.68 7 -1 7 C-0.67 4.69 -0.34 2.38 0 0 Z " fill="#FFDE85" transform="translate(470,236)"/>
<path d="M0 0 C0.33 0 0.66 0 1 0 C1 1.65 1 3.3 1 5 C1.66 5 2.32 5 3 5 C3.66 3.68 4.32 2.36 5 1 C6.61949011 3.57213134 7.04408751 4.67669159 6.625 7.75 C6.41875 8.4925 6.2125 9.235 6 10 C5.34 10 4.68 10 4 10 C4 11.32 4 12.64 4 14 C4.99 14.33 5.98 14.66 7 15 C7.33 18.63 7.66 22.26 8 26 C9.32 26.33 10.64 26.66 12 27 C11.125 31.75 11.125 31.75 10 34 C9.34 34 8.68 34 8 34 C8 32.68 8 31.36 8 30 C8.99 30 9.98 30 11 30 C9.68 29.34 8.36 28.68 7 28 C7 28.66 7 29.32 7 30 C7 32.33333333 7 34.66666667 7 37 C6.34 36.67 5.68 36.34 5 36 C4.42163086 34.19335938 4.42163086 34.19335938 3.96484375 31.84375 C3.79533203 30.98523438 3.62582031 30.12671875 3.45117188 29.2421875 C3.28166016 28.33726562 3.11214844 27.43234375 2.9375 26.5 C2.76412109 25.62601562 2.59074219 24.75203125 2.41210938 23.8515625 C0.87241851 15.89944263 -0.17246735 8.10596524 0 0 Z " fill="#FFD173" transform="translate(41,375)"/>
<path d="M0 0 C0.66 0.66 1.32 1.32 2 2 C1.67 2.66 1.34 3.32 1 4 C1.598125 3.484375 2.19625 2.96875 2.8125 2.4375 C3.534375 1.963125 4.25625 1.48875 5 1 C5.99 1.33 6.98 1.66 8 2 C7.814375 2.969375 7.62875 3.93875 7.4375 4.9375 C7.293125 5.948125 7.14875 6.95875 7 8 C7.33 8.33 7.66 8.66 8 9 C8.23255814 13.53488372 8.23255814 13.53488372 7 16 C7.33 16.99 7.66 17.98 8 19 C7.67 19.66 7.34 20.32 7 21 C6.34 21 5.68 21 5 21 C5.165 22.093125 5.33 23.18625 5.5 24.3125 C6.03281025 28.24197556 6 32.04373533 6 36 C5.01 36.495 5.01 36.495 4 37 C3.67 30.4 3.34 23.8 3 17 C2.01 16.67 1.02 16.34 0 16 C0 10.72 0 5.44 0 0 Z " fill="#FFE194" transform="translate(40,175)"/>
<path d="M0 0 C1.625 2.5 1.625 2.5 3 5 C-0.20068553 6.88657723 -2.55101453 7.24713828 -6.24609375 7.23046875 C-7.24833984 7.22853516 -8.25058594 7.22660156 -9.28320312 7.22460938 C-10.84458008 7.20624023 -10.84458008 7.20624023 -12.4375 7.1875 C-13.47455078 7.18685547 -14.51160156 7.18621094 -15.58007812 7.18554688 C-20.20817138 7.15879489 -24.47044214 7.02468278 -29 6 C-29 5.01 -29 4.02 -29 3 C-24.70546436 2.36701856 -20.9268682 1.82835774 -16.625 2.625 C-12.08064394 3.0951058 -8.68111245 2.02191459 -4.35546875 0.69140625 C-2 0 -2 0 0 0 Z " fill="#FFDD88" transform="translate(197,470)"/>
<path d="M0 0 C0.33 0.66 0.66 1.32 1 2 C1.99 2 2.98 2 4 2 C4.268125 2.804375 4.53625 3.60875 4.8125 4.4375 C5.204375 5.283125 5.59625 6.12875 6 7 C6.99 7.33 7.98 7.66 9 8 C10.18977808 9.68551895 11.37561492 11.37419373 12.52734375 13.0859375 C14.57047599 15.74146747 17.01113976 17.68884011 19.64453125 19.73828125 C20.09183594 20.15464844 20.53914063 20.57101562 21 21 C21 21.66 21 22.32 21 23 C21.99 23.33 22.98 23.66 24 24 C24.6875 26.0625 24.6875 26.0625 25 28 C25.94875 28.0825 26.8975 28.165 27.875 28.25 C31 29 31 29 32.375 31.0625 C32.58125 31.701875 32.7875 32.34125 33 33 C29.51669784 32.35494404 26.90567134 31.01782732 24 29 C24 28.34 24 27.68 24 27 C23.42765625 26.7421875 22.8553125 26.484375 22.265625 26.21875 C19.78871005 24.88634058 17.8658834 23.34943882 15.75 21.5 C15.04359375 20.8915625 14.3371875 20.283125 13.609375 19.65625 C12 18 12 18 12 16 C10.68 15.34 9.36 14.68 8 14 C8 13.34 8 12.68 8 12 C7.01 11.67 6.02 11.34 5 11 C4.30341637 9.34561387 3.63903117 7.67745682 3 6 C2.46375 5.46375 1.9275 4.9275 1.375 4.375 C0.92125 3.92125 0.4675 3.4675 0 3 C0 2.01 0 1.02 0 0 Z " fill="#FFFD90" transform="translate(56,429)"/>
<path d="M0 0 C1.1446875 0.495 1.1446875 0.495 2.3125 1 C4.99069135 2.17436686 4.99069135 2.17436686 8 2 C8.33 2.66 8.66 3.32 9 4 C10.85538145 4.24051241 12.71250047 4.47107021 14.57421875 4.65625 C17.20934172 5.02966517 19.63396762 5.68975992 22.1875 6.4375 C29.12448152 8.41535982 36.18705227 9.43848943 43.34375 10.2734375 C44.90363642 10.45883384 46.454473 10.71899509 48 11 C48.495 11.99 48.495 11.99 49 13 C42.24976748 13.39364207 35.8809294 12.80912037 29.25 11.625 C28.54174072 11.49891357 27.83348145 11.37282715 27.10375977 11.24291992 C20.39367052 9.98531755 14.01690863 8.14412665 7.6875 5.5625 C6.66011719 5.15128906 5.63273437 4.74007813 4.57421875 4.31640625 C2 3 2 3 0 0 Z " fill="#FFFFC0" transform="translate(91,463)"/>
<path d="M0 0 C0.33 0.99 0.66 1.98 1 3 C0.34 3 -0.32 3 -1 3 C-1.185625 3.804375 -1.37125 4.60875 -1.5625 5.4375 C-3.22203642 9.55026418 -5.47928304 12.40028953 -8.26171875 15.81640625 C-9.71637751 17.64371916 -10.96877658 19.45161204 -12.1875 21.4375 C-14.05135274 24.07260214 -15.14841814 24.72170468 -18 26 C-18.33 26.99 -18.66 27.98 -19 29 C-19.99 28.67 -20.98 28.34 -22 28 C-22 27.34 -22 26.68 -22 26 C-21.34 26 -20.68 26 -20 26 C-19.67 25.01 -19.34 24.02 -19 23 C-18.34 22.67 -17.68 22.34 -17 22 C-17.66 20.35 -18.32 18.7 -19 17 C-18.01 17 -17.02 17 -16 17 C-15.67 16.34 -15.34 15.68 -15 15 C-14.01 15 -13.02 15 -12 15 C-10.97980427 14.0206121 -9.97850195 13.02104551 -9 12 C-8.34 12 -7.68 12 -7 12 C-7.33 11.01 -7.66 10.02 -8 9 C-7.01 8.67 -6.02 8.34 -5 8 C-3.55129381 6.14195683 -3.55129381 6.14195683 -2.3125 3.9375 C-1.87550781 3.20402344 -1.43851562 2.47054688 -0.98828125 1.71484375 C-0.66214844 1.14894531 -0.33601563 0.58304687 0 0 Z " fill="#FFEA88" transform="translate(460,421)"/>
<path d="M0 0 C0.66 1.32 1.32 2.64 2 4 C2.66 3.01 3.32 2.02 4 1 C4.66 1 5.32 1 6 1 C7.33500455 6.34001821 6.512545 9.83955235 5 15 C4.01 14.67 3.02 14.34 2 14 C2.02320313 14.84304687 2.04640625 15.68609375 2.0703125 16.5546875 C2.08835938 17.65039062 2.10640625 18.74609375 2.125 19.875 C2.14820313 20.96554688 2.17140625 22.05609375 2.1953125 23.1796875 C2 26 2 26 0 28 C-0.81393517 25.14152758 -1.12830714 22.59761568 -1.1328125 19.62890625 C-1.13410156 18.80712891 -1.13539062 17.98535156 -1.13671875 17.13867188 C-1.13285156 16.28853516 -1.12898438 15.43839844 -1.125 14.5625 C-1.12886719 13.71623047 -1.13273437 12.86996094 -1.13671875 11.99804688 C-1.13025437 7.87054048 -1.041272 4.02459894 0 0 Z " fill="#FFDF97" transform="translate(41,147)"/>
<path d="M0 0 C2.03833424 1.2739589 4.03852126 2.61061923 6 4 C6 4.66 6 5.32 6 6 C6.99 6.33 7.98 6.66 9 7 C9.87890625 9.25 9.87890625 9.25 10.5625 12 C11.20149184 14.68457638 11.20149184 14.68457638 12 17 C12.66 17.33 13.32 17.66 14 18 C14.9375 19.625 14.9375 19.625 16 22 C16.556875 23.155 17.11375 24.31 17.6875 25.5 C19.01277629 29.03407012 19.09147944 29.6596334 18 33 C17.73445313 32.28972656 17.46890625 31.57945313 17.1953125 30.84765625 C16.84210938 29.92855469 16.48890625 29.00945312 16.125 28.0625 C15.60292969 26.68771484 15.60292969 26.68771484 15.0703125 25.28515625 C14.2180914 22.85058944 14.2180914 22.85058944 12 22 C11.67 22.66 11.34 23.32 11 24 C10.34 21.36 9.68 18.72 9 16 C8.34 16 7.68 16 7 16 C7 15.01 7 14.02 7 13 C6.34 12.67 5.68 12.34 5 12 C3.96484375 10.0390625 3.96484375 10.0390625 2.9375 7.625 C2.59589844 6.83351563 2.25429688 6.04203125 1.90234375 5.2265625 C1.20599614 3.50830216 0.5862865 1.7588595 0 0 Z " fill="#FFD589" transform="translate(444,82)"/>
<path d="M0 0 C0.72963959 0.00141495 1.45927917 0.0028299 2.21102905 0.00428772 C4.54437335 0.00989094 6.87762214 0.0224439 9.2109375 0.03515625 C10.79166528 0.04017084 12.37239457 0.04473382 13.953125 0.04882812 C17.83076604 0.05986141 21.70833557 0.07712814 25.5859375 0.09765625 C26.0809375 1.58265625 26.0809375 1.58265625 26.5859375 3.09765625 C25.75449219 3.08605469 24.92304688 3.07445312 24.06640625 3.0625 C22.43638672 3.04896484 22.43638672 3.04896484 20.7734375 3.03515625 C19.15501953 3.01775391 19.15501953 3.01775391 17.50390625 3 C14.52081581 2.96140859 14.52081581 2.96140859 11.5859375 4.09765625 C2.73349098 4.50329396 -6.65898346 4.57778126 -15.4140625 3.09765625 C-15.7440625 2.43765625 -16.0740625 1.77765625 -16.4140625 1.09765625 C-15.3003125 1.11828125 -14.1865625 1.13890625 -13.0390625 1.16015625 C-8.59703612 1.08356959 -4.59535304 -0.03333454 0 0 Z " fill="#FFFFB6" transform="translate(172.4140625,44.90234375)"/>
<path d="M0 0 C0.66 0 1.32 0 2 0 C2.02500541 4.08934581 2.04300222 8.17866105 2.05493164 12.26806641 C2.05991293 13.65479306 2.06670039 15.04151459 2.07543945 16.42822266 C2.20530938 37.58938124 2.20530938 37.58938124 0 42 C-0.66 42 -1.32 42 -2 42 C-2.12608995 34.43460271 -2.12608995 34.43460271 -1.49780273 32.26904297 C-0.85093302 29.3205353 -0.9067672 26.57290431 -0.9375 23.5546875 C-0.94523437 22.31332031 -0.95296875 21.07195312 -0.9609375 19.79296875 C-0.97382813 18.50003906 -0.98671875 17.20710938 -1 15.875 C-1.02542183 13.3099372 -1.04648457 10.74482627 -1.0625 8.1796875 C-1.07410156 7.04257324 -1.08570313 5.90545898 -1.09765625 4.73388672 C-1 2 -1 2 0 0 Z " fill="#FFF4B8" transform="translate(470,339)"/>
<path d="M0 0 C0.99 0.33 1.98 0.66 3 1 C3 8.92 3 16.84 3 25 C2.34 25 1.68 25 1 25 C1 23.68 1 22.36 1 21 C0.34 21 -0.32 21 -1 21 C-1.33 22.32 -1.66 23.64 -2 25 C-2.66 24.34 -3.32 23.68 -4 23 C-4 22.01 -4 21.02 -4 20 C-3.34 20 -2.68 20 -2 20 C-2.33 16.04 -2.66 12.08 -3 8 C-2.34 8 -1.68 8 -1 8 C-0.67 5.36 -0.34 2.72 0 0 Z " fill="#FFE696" transform="translate(469,305)"/>
<path d="M0 0 C1.33804688 0.04060547 1.33804688 0.04060547 2.703125 0.08203125 C3.37859375 0.11683594 4.0540625 0.15164063 4.75 0.1875 C4.42 1.5075 4.09 2.8275 3.75 4.1875 C7.38 4.1875 11.01 4.1875 14.75 4.1875 C14.75 4.5175 14.75 4.8475 14.75 5.1875 C11.1035194 6.0285478 7.75049093 6.30514968 4.01171875 6.28515625 C2.94501953 6.28193359 1.87832031 6.27871094 0.77929688 6.27539062 C-0.87489258 6.26282227 -0.87489258 6.26282227 -2.5625 6.25 C-3.68462891 6.24548828 -4.80675781 6.24097656 -5.96289062 6.23632812 C-8.7253151 6.22457313 -11.48762998 6.20814077 -14.25 6.1875 C-13.92 5.5275 -13.59 4.8675 -13.25 4.1875 C-12.651875 4.043125 -12.05375 3.89875 -11.4375 3.75 C-9.15621247 3.33186751 -9.15621247 3.33186751 -7.44140625 1.6640625 C-4.73990656 -0.15619932 -3.21907975 -0.12706894 0 0 Z " fill="#FFD37F" transform="translate(240.25,469.8125)"/>
<path d="M0 0 C2.4375 0.8125 2.4375 0.8125 5 2 C5.33 2.99 5.66 3.98 6 5 C16.395 4.505 16.395 4.505 27 4 C27 4.66 27 5.32 27 6 C27.99 6.33 28.98 6.66 30 7 C13.25543478 8.69565217 13.25543478 8.69565217 5 6 C5 6.66 5 7.32 5 8 C3.3743193 7.69106068 1.74947252 7.3777305 0.125 7.0625 C-0.77992188 6.88847656 -1.68484375 6.71445312 -2.6171875 6.53515625 C-5 6 -5 6 -7 5 C-6 4 -6 4 -2.4375 3.9375 C-1.303125 3.958125 -0.16875 3.97875 1 4 C0.67 2.68 0.34 1.36 0 0 Z " fill="#FFD280" transform="translate(137,468)"/>
<path d="M0 0 C-8.01728525 4.90854199 -15.88044803 7.79654756 -25 10 C-25.98097656 10.23847656 -26.96195312 10.47695313 -27.97265625 10.72265625 C-34.94874025 12.2740387 -34.94874025 12.2740387 -39 11 C-36.63930084 8.63930084 -36.02286175 8.74484413 -32.8125 8.5625 C-28.3829483 8.15981348 -25.05498171 6.88267008 -21 5 C-19.44583268 4.41487057 -17.88274824 3.85299328 -16.3125 3.3125 C-15.22388672 2.93544922 -15.22388672 2.93544922 -14.11328125 2.55078125 C-12 2 -12 2 -8 2 C-7.67 1.34 -7.34 0.68 -7 0 C-4.0262656 -1.09036928 -3.11592499 -1.03864166 0 0 Z " fill="#FFFFB5" transform="translate(424,463)"/>
<path d="M0 0 C2.35448092 2.35448092 2.33616746 3.155052 2.625 6.375 C2.69976562 7.14585937 2.77453125 7.91671875 2.8515625 8.7109375 C2.98725641 10.80348048 3 12.903062 3 15 C2.34 15 1.68 15 1 15 C1.33 15.763125 1.66 16.52625 2 17.3125 C4.10225747 25.06457444 3.03259691 33.12644856 2 41 C0 39 0 39 -0.22705078 35.19287109 C-0.22673346 33.5530258 -0.21539681 31.91315983 -0.1953125 30.2734375 C-0.1924826 29.41062164 -0.18965271 28.54780579 -0.18673706 27.65884399 C-0.17552333 24.8974228 -0.15041684 22.1363235 -0.125 19.375 C-0.11497173 17.50521301 -0.10584562 15.63542095 -0.09765625 13.765625 C-0.07558012 9.17695891 -0.04104234 4.58853407 0 0 Z " fill="#FFFFC8" transform="translate(40,331)"/>
<path d="M0 0 C3 3.75 3 3.75 3 6 C3.66 6 4.32 6 5 6 C9.05637976 14.14600853 11.70289975 22.20942083 14 31 C13.34 31.33 12.68 31.66 12 32 C12 31.01 12 30.02 12 29 C11.34 29 10.68 29 10 29 C9.81824219 28.43152344 9.63648438 27.86304687 9.44921875 27.27734375 C7.1404513 20.18528373 4.33671785 13.49739715 0.8671875 6.89453125 C-0.03172905 4.93068203 -0.62649842 3.12713706 -1 1 C-0.67 0.67 -0.34 0.34 0 0 Z " fill="#FFFFBD" transform="translate(454,89)"/>
<path d="M0 0 C0.77923828 0.00451172 1.55847656 0.00902344 2.36132812 0.01367188 C4.26175268 0.02533092 6.16213706 0.04326123 8.0625 0.0625 C8.0625 1.0525 8.0625 2.0425 8.0625 3.0625 C6.0625 5.0625 6.0625 5.0625 2.3671875 5.2578125 C0.89049892 5.244509 -0.58612358 5.22064835 -2.0625 5.1875 C-2.81660156 5.17847656 -3.57070313 5.16945313 -4.34765625 5.16015625 C-6.21107254 5.1365687 -8.07432593 5.10069719 -9.9375 5.0625 C-9.9375 4.7325 -9.9375 4.4025 -9.9375 4.0625 C-12.9075 3.5675 -12.9075 3.5675 -15.9375 3.0625 C-15.9375 2.4025 -15.9375 1.7425 -15.9375 1.0625 C-10.57260405 0.15766363 -5.43432543 -0.06053662 0 0 Z " fill="#FFDB99" transform="translate(301.9375,44.9375)"/>
<path d="M0 0 C1.65 0 3.3 0 5 0 C5.33 0.66 5.66 1.32 6 2 C10.95 1.34 15.9 0.68 21 0 C21 1.98 21 3.96 21 6 C19.9275 5.79375 18.855 5.5875 17.75 5.375 C14.17912194 4.66775769 14.17912194 4.66775769 12 6.0625 C8.75853149 7.58193836 6.23774629 6.12075833 3 5 C3 4.34 3 3.68 3 3 C1.68 2.67 0.36 2.34 -1 2 C-0.67 1.34 -0.34 0.68 0 0 Z " fill="#FFE388" transform="translate(329,470)"/>
<path d="M0 0 C2 2 2 2 2.24291992 4.71801758 C2.23881104 5.84876709 2.23470215 6.9795166 2.23046875 8.14453125 C2.22853516 9.37880859 2.22660156 10.61308594 2.22460938 11.88476562 C2.21236328 13.18091797 2.20011719 14.47707031 2.1875 15.8125 C2.18685547 17.09705078 2.18621094 18.38160156 2.18554688 19.70507812 C2.13663761 30.1444882 2.13663761 30.1444882 1 35 C-1.92965912 32.07034088 -2.94133569 29.319947 -3.125 25.1875 C-3.08375 24.465625 -3.0425 23.74375 -3 23 C-2.34 23.99 -1.68 24.98 -1 26 C-0.67 21.38 -0.34 16.76 0 12 C-0.66 12 -1.32 12 -2 12 C-2.33 10.35 -2.66 8.7 -3 7 C-2.34 7 -1.68 7 -1 7 C-0.67 4.69 -0.34 2.38 0 0 Z " fill="#FFFFB0" transform="translate(470,236)"/>
<path d="M0 0 C0.33 0.66 0.66 1.32 1 2 C-3.75 6 -3.75 6 -6 6 C-6.12375 6.598125 -6.2475 7.19625 -6.375 7.8125 C-7 10 -7 10 -9 13 C-9.66 13 -10.32 13 -11 13 C-11 13.66 -11 14.32 -11 15 C-12.875 17.125 -12.875 17.125 -15 19 C-15.66 19 -16.32 19 -17 19 C-17 19.66 -17 20.32 -17 21 C-18.98 21.99 -18.98 21.99 -21 23 C-21 22.01 -21 21.02 -21 20 C-20.34 20 -19.68 20 -19 20 C-18.773125 19.278125 -18.54625 18.55625 -18.3125 17.8125 C-16.72668125 14.41431697 -14.73876676 12.54769001 -12 10 C-11.175 9.154375 -10.35 8.30875 -9.5 7.4375 C-6.57653847 4.587125 -3.67229322 1.83614661 0 0 Z " fill="#FFFFC7" transform="translate(81,65)"/>
<path d="M0 0 C0.66 0.33 1.32 0.66 2 1 C2.4140625 3.28515625 2.4140625 3.28515625 2.625 6.0625 C2.69976562 6.98160156 2.77453125 7.90070313 2.8515625 8.84765625 C2.90054688 9.55792969 2.94953125 10.26820313 3 11 C4.32 11.33 5.64 11.66 7 12 C6.125 16.75 6.125 16.75 5 19 C4.34 19 3.68 19 3 19 C3 17.68 3 16.36 3 15 C3.99 15 4.98 15 6 15 C4.68 14.34 3.36 13.68 2 13 C2 13.66 2 14.32 2 15 C2 17.33333333 2 19.66666667 2 22 C1.34 21.67 0.68 21.34 0 21 C-0.66796875 18.890625 -0.66796875 18.890625 -1.1875 16.25 C-1.36667969 15.38890625 -1.54585937 14.5278125 -1.73046875 13.640625 C-2.01750046 10.82854619 -1.74561381 8.71650382 -1 6 C-0.67 5.67 -0.34 5.34 0 5 C0.04063832 3.33382885 0.042721 1.66611905 0 0 Z " fill="#FFDB97" transform="translate(46,390)"/>
<path d="M0 0 C0.589021 0.03029297 1.17804199 0.06058594 1.78491211 0.09179688 C4.50232768 0.23020966 7.21990674 0.3651228 9.9375 0.5 C11.32678711 0.57154297 11.32678711 0.57154297 12.74414062 0.64453125 C17.16762776 0.86182535 21.57067334 1.02514877 26 1 C29.233828 1 31.89107024 1.19769554 35 2 C34.67 2.99 34.34 3.98 34 5 C33.30962646 4.93417725 32.61925293 4.86835449 31.90795898 4.80053711 C28.75186508 4.50443003 25.59476217 4.22086748 22.4375 3.9375 C20.80844727 3.7818457 20.80844727 3.7818457 19.14648438 3.62304688 C12.51326708 2.99680971 12.51326708 2.99680971 5.91015625 3.56640625 C3 4 3 4 0 2 C0 1.34 0 0.68 0 0 Z " fill="#FFFFBA" transform="translate(341,45)"/>
<path d="M0 0 C0.66 0.66 1.32 1.32 2 2 C2.66 1.67 3.32 1.34 4 1 C5.5625 2.8125 5.5625 2.8125 7 5 C6.67 5.99 6.34 6.98 6 8 C5.34 8 4.68 8 4 8 C3.566875 8.969375 3.13375 9.93875 2.6875 10.9375 C1 14 1 14 -2 15 C-2.6875 12.75 -2.6875 12.75 -3 10 C-1.5625 7.6875 -1.5625 7.6875 0 6 C-0.99 6 -1.98 6 -3 6 C-1.125 1.125 -1.125 1.125 0 0 Z " fill="#FFD589" transform="translate(437,437)"/>
<path d="M0 0 C1.13888672 0.10828125 1.13888672 0.10828125 2.30078125 0.21875 C3.29464844 0.3115625 4.28851563 0.404375 5.3125 0.5 C6.79169922 0.63921875 6.79169922 0.63921875 8.30078125 0.78125 C11.04702139 1.04038857 11.04702139 1.04038857 14 1 C16.06616782 1.30978688 18.12848754 1.6457613 20.1875 2 C21.27417969 2.185625 22.36085938 2.37125 23.48046875 2.5625 C24.31191406 2.706875 25.14335937 2.85125 26 3 C26 3.33 26 3.66 26 4 C15.44 4 4.88 4 -6 4 C-6.33 3.34 -6.66 2.68 -7 2 C-4.69 2 -2.38 2 0 2 C0 1.34 0 0.68 0 0 Z " fill="#FFE9A4" transform="translate(309,473)"/>
<path d="M0 0 C1.084021 0.00523682 2.16804199 0.01047363 3.28491211 0.01586914 C5.03964844 0.02070312 5.03964844 0.02070312 6.82983398 0.02563477 C8.67738281 0.03820313 8.67738281 0.03820313 10.56225586 0.05102539 C12.41560547 0.05779297 12.41560547 0.05779297 14.30639648 0.06469727 C17.37089703 0.07652931 20.43530307 0.09301366 23.49975586 0.11352539 C23.49975586 1.43352539 23.49975586 2.75352539 23.49975586 4.11352539 C22.43756836 4.04133789 21.37538086 3.96915039 20.28100586 3.89477539 C18.8539315 3.80088892 17.42684764 3.70714666 15.99975586 3.61352539 C14.95561523 3.54198242 14.95561523 3.54198242 13.89038086 3.46899414 C10.29341436 3.23585742 6.76035516 3.11485618 3.15600586 3.20727539 C-0.50024414 3.11352539 -0.50024414 3.11352539 -3.50024414 1.11352539 C-2.50024414 0.11352539 -2.50024414 0.11352539 0 0 Z " fill="#FFFFBF" transform="translate(314.500244140625,44.886474609375)"/>
<path d="M0 0 C0.66 0 1.32 0 2 0 C2.33 0.99 2.66 1.98 3 3 C3.99 3.33 4.98 3.66 6 4 C6.33 3.01 6.66 2.02 7 1 C7.66 1.33 8.32 1.66 9 2 C9 2.66 9 3.32 9 4 C9.66 4.33 10.32 4.66 11 5 C8.69 5 6.38 5 4 5 C4 5.66 4 6.32 4 7 C3.34 7 2.68 7 2 7 C2 6.34 2 5.68 2 5 C0.95199219 5.08378906 -0.09601563 5.16757812 -1.17578125 5.25390625 C-2.55466381 5.35708794 -3.93357143 5.45993506 -5.3125 5.5625 C-6.00279297 5.61857422 -6.69308594 5.67464844 -7.40429688 5.73242188 C-10.62512274 5.96581505 -12.90327345 6.03224218 -16 5 C-16 4.34 -16 3.68 -16 3 C-9.25 2.875 -9.25 2.875 -7 4 C-7 3.34 -7 2.68 -7 2 C-4.69 2.33 -2.38 2.66 0 3 C0 2.01 0 1.02 0 0 Z " fill="#FFCE7F" transform="translate(298,470)"/>
<path d="M0 0 C0.33 0 0.66 0 1 0 C0.98839844 0.99902344 0.97679687 1.99804688 0.96484375 3.02734375 C0.95582031 4.31769531 0.94679687 5.60804688 0.9375 6.9375 C0.92589844 8.22527344 0.91429687 9.51304687 0.90234375 10.83984375 C0.63467451 13.86298403 0.63467451 13.86298403 2 15 C2 12.03 2 9.06 2 6 C2.66 6 3.32 6 4 6 C4 7.65 4 9.3 4 11 C4.99 11 5.98 11 7 11 C6.67 11.763125 6.34 12.52625 6 13.3125 C4.82563314 15.99069135 4.82563314 15.99069135 5 19 C4.01 19 3.02 19 2 19 C1.67 18.34 1.34 17.68 1 17 C0.34 17.66 -0.32 18.32 -1 19 C-3.53135799 13.93728403 -1.01809135 5.38133999 0 0 Z " fill="#FFEDA7" transform="translate(43,128)"/>
<path d="M0 0 C0.66 0.66 1.32 1.32 2 2 C1.7578125 4.6015625 1.7578125 4.6015625 1.125 7.625 C0.92132813 8.62789063 0.71765625 9.63078125 0.5078125 10.6640625 C0.34023438 11.43492187 0.17265625 12.20578125 0 13 C0.99 12.67 1.98 12.34 3 12 C2 15 2 15 1 17 C0.32136945 18.9959722 -0.34641919 20.99568551 -1 23 C-2.76462683 19.91190305 -3 18.76687864 -3 15 C-2.34 15 -1.68 15 -1 15 C-1.2165625 14.40832031 -1.433125 13.81664062 -1.65625 13.20703125 C-4.42179262 5.35852373 -4.42179262 5.35852373 -4 1 C-2.125 0.375 -2.125 0.375 0 0 Z " fill="#FFD48A" transform="translate(468,368)"/>
<path d="M0 0 C4.23373315 4.23373315 3.1823114 12.85528221 3.1875 18.625 C3.19974609 19.34945313 3.21199219 20.07390625 3.22460938 20.8203125 C3.2367074 25.27238623 2.67456436 28.80366084 1 33 C0.67 33 0.34 33 0 33 C0 22.11 0 11.22 0 0 Z " fill="#FFFFC2" transform="translate(40,258)"/>
<path d="M0 0 C0.12375 0.639375 0.2475 1.27875 0.375 1.9375 C0.684375 2.9584375 0.684375 2.9584375 1 4 C1.66 4.33 2.32 4.66 3 5 C2.01 5.495 2.01 5.495 1 6 C1.99 6.66 2.98 7.32 4 8 C3.2575 8.556875 3.2575 8.556875 2.5 9.125 C0.40244486 11.74694393 0.78256165 13.73842472 1 17 C0.67 16.34 0.34 15.68 0 15 C-0.66 15 -1.32 15 -2 15 C-1.814375 15.7425 -1.62875 16.485 -1.4375 17.25 C-1.00796892 19.94990963 -1.14877026 21.44631077 -2 24 C-2.66 23.67 -3.32 23.34 -4 23 C-4 17.72 -4 12.44 -4 7 C-3.01 7 -2.02 7 -1 7 C-0.67 4.69 -0.34 2.38 0 0 Z " fill="#FFD989" transform="translate(47,119)"/>
<path d="M0 0 C3.3 0.66 6.6 1.32 10 2 C9.01 3.32 8.02 4.64 7 6 C4.3125 6.25 4.3125 6.25 2 6 C2 6.33 2 6.66 2 7 C5.96 7.33 9.92 7.66 14 8 C14 8.33 14 8.66 14 9 C8.39 9 2.78 9 -3 9 C-3 8.34 -3 7.68 -3 7 C-2.34 6.67 -1.68 6.34 -1 6 C-1.33 5.34 -1.66 4.68 -2 4 C-1.34 2.68 -0.68 1.36 0 0 Z " fill="#FFE7AE" transform="translate(200,468)"/>
<path d="M0 0 C1.67542976 0.28604898 3.34385343 0.61781233 5 1 C5 3.31 5 5.62 5 8 C5.66 8.33 6.32 8.66 7 9 C5.02 9.99 5.02 9.99 3 11 C2.67 9.68 2.34 8.36 2 7 C1.67 10.3 1.34 13.6 1 17 C0.34 17 -0.32 17 -1 17 C-1.02684679 14.35409986 -1.04676357 11.70846904 -1.0625 9.0625 C-1.07087891 8.30775391 -1.07925781 7.55300781 -1.08789062 6.77539062 C-1.09652441 4.85005687 -1.05224333 2.92464419 -1 1 C-0.67 0.67 -0.34 0.34 0 0 Z " fill="#FFD48A" transform="translate(43,260)"/>
<path d="M0 0 C1.32 0 2.64 0 4 0 C4 1.32 4 2.64 4 4 C5.65 3.67 7.3 3.34 9 3 C9 3.66 9 4.32 9 5 C-1.56 5 -12.12 5 -23 5 C-22.67 4.01 -22.34 3.02 -22 2 C-20.58847656 2.10828125 -20.58847656 2.10828125 -19.1484375 2.21875 C-17.28058594 2.35796875 -17.28058594 2.35796875 -15.375 2.5 C-13.53035156 2.63921875 -13.53035156 2.63921875 -11.6484375 2.78125 C-5.65548231 3.4130366 -5.65548231 3.4130366 0 2 C0 1.34 0 0.68 0 0 Z " fill="#FFFAD5" transform="translate(164,472)"/>
<path d="M0 0 C0.99 0.33 1.98 0.66 3 1 C3.33 1.99 3.66 2.98 4 4 C6.97 4 9.94 4 13 4 C8.78370866 6.10814567 6.60209225 6.17700355 2 6 C2 6.66 2 7.32 2 8 C4.64 8 7.28 8 10 8 C10 8.33 10 8.66 10 9 C4.06 9 -1.88 9 -8 9 C-7.67 8.01 -7.34 7.02 -7 6 C-4.69 6.33 -2.38 6.66 0 7 C0 5.68 0 4.36 0 3 C-0.66 2.67 -1.32 2.34 -2 2 C-1.34 1.34 -0.68 0.68 0 0 Z " fill="#FFE096" transform="translate(349,468)"/>
<path d="M0 0 C-6.03052638 3.71109315 -11.27909815 3.60749418 -18.0625 2.5 C-18.701875 2.335 -19.34125 2.17 -20 2 C-20 1.01 -20 0.02 -20 -1 C-13.08595709 -2.32396566 -6.79561929 -1.81011981 0 0 Z " fill="#FFD093" transform="translate(188,474)"/>
<path d="M0 0 C5.18048867 8.72847041 4.29679402 22.2222858 4 32 C3.67 32 3.34 32 3 32 C1.09141234 21.24147312 -0.53132662 10.96107141 0 0 Z " fill="#FFFFAD" transform="translate(467,123)"/>
<path d="M0 0 C3.36143418 1.12047806 4.57528834 2.49707183 7 5 C7.66 5.33 8.32 5.66 9 6 C9 6.99 9 7.98 9 9 C10.32 9.66 11.64 10.32 13 11 C13 11.66 13 12.32 13 13 C13.66 13 14.32 13 15 13 C16.32 15.31 17.64 17.62 19 20 C18.01 20 17.02 20 16 20 C14.61328125 18.5390625 14.61328125 18.5390625 13.3125 16.625 C12.65701172 15.68527344 12.65701172 15.68527344 11.98828125 14.7265625 C11 13 11 13 11 11 C10.4225 10.71125 9.845 10.4225 9.25 10.125 C7.16666667 9.08333333 5.08333333 8.04166667 3 7 C3 6.34 3 5.68 3 5 C2.34 5 1.68 5 1 5 C0.67 3.35 0.34 1.7 0 0 Z " fill="#FFFFE0" transform="translate(434,68)"/>
<path d="M0 0 C7.59 0.33 15.18 0.66 23 1 C18.5 4.375 18.5 4.375 14.453125 4.07421875 C13.60878906 4.01943359 12.76445312 3.96464844 11.89453125 3.90820312 C11.02183594 3.83537109 10.14914063 3.76253906 9.25 3.6875 C8.36183594 3.62626953 7.47367188 3.56503906 6.55859375 3.50195312 C4.37092956 3.34905186 2.18546558 3.18127554 0 3 C0 2.01 0 1.02 0 0 Z " fill="#FFCA7D" transform="translate(202,473)"/>
<path d="M0 0 C1.93287503 3.86575006 2.21578672 4.99733626 2.0625 9.0625 C1.95467274 12.18011416 1.99901743 13.9970523 3 17 C2.83988879 19.70123106 2.39559392 22.31875231 2 25 C2.66 25.33 3.32 25.66 4 26 C3.01 28.31 2.02 30.62 1 33 C0.67 33 0.34 33 0 33 C0 22.11 0 11.22 0 0 Z " fill="#FFFFCA" transform="translate(40,223)"/>
<path d="M0 0 C0.66 0 1.32 0 2 0 C4.00231204 4.8291055 3.96692482 7.90166912 3 13 C2.80260323 14.47787848 2.61504294 15.95710519 2.4375 17.4375 C2.2209375 19.2009375 2.2209375 19.2009375 2 21 C1.34 20.67 0.68 20.34 0 20 C0 13.4 0 6.8 0 0 Z " fill="#FFD684" transform="translate(468,223)"/>
<path d="M0 0 C16.8929385 -0.18451025 16.8929385 -0.18451025 24 1 C24 1.33 24 1.66 24 2 C18.47291389 2.94220126 13.16241648 3.12116149 7.5625 3.0625 C6.73556641 3.05798828 5.90863281 3.05347656 5.05664062 3.04882812 C3.03772854 3.03715811 1.01885426 3.01922718 -1 3 C-0.67 2.01 -0.34 1.02 0 0 Z " fill="#FFFFEB" transform="translate(240,45)"/>
<path d="M0 0 C0.33 0.99 0.66 1.98 1 3 C0.34 3 -0.32 3 -1 3 C-1.185625 3.804375 -1.37125 4.60875 -1.5625 5.4375 C-3.53894736 10.33565216 -6.68390438 13.93796751 -10 18 C-11.00656131 19.32838703 -12.0087517 20.66014755 -13 22 C-12.38909774 15.52443609 -12.38909774 15.52443609 -10.5625 13.0625 C-9 12 -9 12 -7 12 C-7.33 11.01 -7.66 10.02 -8 9 C-7.01 8.67 -6.02 8.34 -5 8 C-3.55129381 6.14195683 -3.55129381 6.14195683 -2.3125 3.9375 C-1.87550781 3.20402344 -1.43851562 2.47054688 -0.98828125 1.71484375 C-0.66214844 1.14894531 -0.33601563 0.58304687 0 0 Z " fill="#FFFFD9" transform="translate(460,421)"/>
<path d="M0 0 C1.67542976 0.28604898 3.34385343 0.61781233 5 1 C5.33 2.32 5.66 3.64 6 5 C7.65 5 9.3 5 11 5 C11 5.66 11 6.32 11 7 C4.37762333 6.21429429 -1.67529707 5.20629172 -8 3 C-8 2.67 -8 2.34 -8 2 C-6.865625 1.855625 -5.73125 1.71125 -4.5625 1.5625 C-1.19222799 1.38828522 -1.19222799 1.38828522 0 0 Z " fill="#FFD686" transform="translate(320,469)"/>
<path d="M0 0 C2.3125 -0.25 2.3125 -0.25 5 0 C6.77797841 1.90497687 7.83981519 3.67963038 9 6 C5.85069107 7.04976964 3.61185544 7.10131595 0.3125 7.0625 C-0.68136719 7.05347656 -1.67523438 7.04445313 -2.69921875 7.03515625 C-3.83810547 7.01775391 -3.83810547 7.01775391 -5 7 C-3.68 6.34 -2.36 5.68 -1 5 C-1.99 4.34 -2.98 3.68 -4 3 C-2.68 2.67 -1.36 2.34 0 2 C0 1.34 0 0.68 0 0 Z " fill="#FFD289" transform="translate(378,467)"/>
<path d="M0 0 C2 2 2 2 2 6 C2.99 6.66 3.98 7.32 5 8 C4.67 10.64 4.34 13.28 4 16 C2.68 16.33 1.36 16.66 0 17 C0 11.39 0 5.78 0 0 Z " fill="#FFF2B4" transform="translate(40,175)"/>
<path d="M0 0 C0.66 0.33 1.32 0.66 2 1 C0.7792482 6.08646583 -0.71919558 9.79646933 -4 14 C-4.66 14 -5.32 14 -6 14 C-6 14.99 -6 15.98 -6 17 C-6.66 16.67 -7.32 16.34 -8 16 C-5.74007974 10.40967094 -2.99931115 5.22804829 0 0 Z " fill="#FFFFD5" transform="translate(58,87)"/>
<path d="M0 0 C0.99 0.33 1.98 0.66 3 1 C0.34363346 3.94097724 -1.23464224 5.05866056 -5 6 C-6.35368596 7.31266518 -7.68799596 8.64567325 -9 10 C-9.99 10.33 -10.98 10.66 -12 11 C-12.99 10.34 -13.98 9.68 -15 9 C-11.76640687 6.22834874 -8.96905662 4.48839623 -5 3 C-3.700625 2.1646875 -3.700625 2.1646875 -2.375 1.3125 C-1.59125 0.879375 -0.8075 0.44625 0 0 Z " fill="#FFFFB9" transform="translate(97,55)"/>
<path d="M0 0 C5.013003 -0.16993231 8.39968757 -0.12322112 13 2 C15.32748694 2.68679942 17.65986656 3.35761043 20 4 C20 4.66 20 5.32 20 6 C6.304679 3.88610809 6.304679 3.88610809 1 2 C0.67 1.34 0.34 0.68 0 0 Z " fill="#FFFFBD" transform="translate(389,49)"/>
<path d="M0 0 C2.31 0.33 4.62 0.66 7 1 C7 1.66 7 2.32 7 3 C7.66 3.66 8.32 4.32 9 5 C4.60563789 5.85743651 0.47427924 6.08948558 -4 6 C-3.67 5.01 -3.34 4.02 -3 3 C-2.01 3.33 -1.02 3.66 0 4 C0 2.68 0 1.36 0 0 Z " fill="#FFF1B0" transform="translate(364,471)"/>
<path d="M0 0 C0.66 0.33 1.32 0.66 2 1 C2.625 4.0625 2.625 4.0625 3 7 C2.01 7.495 2.01 7.495 1 8 C0.34227572 11.02934491 0.34227572 11.02934491 0 14 C-0.66 14 -1.32 14 -2 14 C-2.33 16.31 -2.66 18.62 -3 21 C-3.33 21 -3.66 21 -4 21 C-4 17.04 -4 13.08 -4 9 C-3.01 9.495 -3.01 9.495 -2 10 C-2 7.69 -2 5.38 -2 3 C-1.34 3 -0.68 3 0 3 C0 2.01 0 1.02 0 0 Z " fill="#FFD57E" transform="translate(465,395)"/>
<path d="M0 0 C2.24519581 4.49039163 2.04965789 7.44287263 1.625 12.25 C1.53992188 13.36761719 1.53992188 13.36761719 1.453125 14.5078125 C1.31223742 16.33935108 1.15748116 18.16981352 1 20 C0.34 18.68 -0.32 17.36 -1 16 C-1.66 16.33 -2.32 16.66 -3 17 C-3.66 16.67 -4.32 16.34 -5 16 C-4.1875 13.5625 -4.1875 13.5625 -3 11 C-2.01 10.67 -1.02 10.34 0 10 C0 6.7 0 3.4 0 0 Z " fill="#FFD38A" transform="translate(468,344)"/>
<path d="M0 0 C0.99 0.33 1.98 0.66 3 1 C3 5.62 3 10.24 3 15 C2.01 15 1.02 15 0 15 C-0.84888195 9.62374766 -1.0024305 5.34629602 0 0 Z " fill="#FFE9B5" transform="translate(469,272)"/>
<path d="M0 0 C2.56687367 3.8503105 1.83288724 5.58569763 1 10 C2.32 9.67 3.64 9.34 5 9 C4.67 10.65 4.34 12.3 4 14 C3.34 14 2.68 14 2 14 C1.67 14.66 1.34 15.32 1 16 C0.34 16 -0.32 16 -1 16 C-1.02712153 14.083412 -1.04645097 12.1667127 -1.0625 10.25 C-1.07410156 9.18265625 -1.08570313 8.1153125 -1.09765625 7.015625 C-1.01510087 4.46631499 -0.74617558 2.42066409 0 0 Z " fill="#FFF7A2" transform="translate(41,288)"/>
<path d="M0 0 C0.66 1.32 1.32 2.64 2 4 C0.68 4.33 -0.64 4.66 -2 5 C-2 5.66 -2 6.32 -2 7 C-1.34 7 -0.68 7 0 7 C0.08131463 8.43655854 0.13933559 9.8744483 0.1875 11.3125 C0.22230469 12.11300781 0.25710937 12.91351563 0.29296875 13.73828125 C-0.06198392 16.47851584 -0.89366282 17.29171079 -3 19 C-2.98839844 18.41992188 -2.97679687 17.83984375 -2.96484375 17.2421875 C-2.91237826 12.7001754 -3.08248937 8.47286431 -4 4 C-2.68 4 -1.36 4 0 4 C0 2.68 0 1.36 0 0 Z " fill="#FFEB88" transform="translate(44,217)"/>
<path d="M0 0 C2.44989101 3.74235319 2.23086143 7.44225419 2.125 11.75 C2.11597656 12.44738281 2.10695312 13.14476562 2.09765625 13.86328125 C2.07419888 15.57566958 2.03833104 17.28788004 2 19 C1.01 19.33 0.02 19.66 -1 20 C-1.02888514 16.85418577 -1.04675923 13.70840531 -1.0625 10.5625 C-1.07087891 9.66466797 -1.07925781 8.76683594 -1.08789062 7.84179688 C-1.09111328 6.98779297 -1.09433594 6.13378906 -1.09765625 5.25390625 C-1.10551147 4.06776733 -1.10551147 4.06776733 -1.11352539 2.85766602 C-1 1 -1 1 0 0 Z " fill="#FFFFB3" transform="translate(41,193)"/>
<path d="M0 0 C2.13604308 3.20406462 2.24208908 3.99600747 2.1953125 7.66796875 C2.18886719 8.56064453 2.18242188 9.45332031 2.17578125 10.37304688 C2.15902344 11.30181641 2.14226563 12.23058594 2.125 13.1875 C2.11597656 14.12787109 2.10695312 15.06824219 2.09765625 16.03710938 C2.07409056 18.35832968 2.04119116 20.67903644 2 23 C1.34 22.67 0.68 22.34 0 22 C0.01160156 20.96359375 0.02320313 19.9271875 0.03515625 18.859375 C0.04453837 17.48958514 0.05363812 16.11979332 0.0625 14.75 C0.07087891 14.06808594 0.07925781 13.38617188 0.08789062 12.68359375 C0.1044924 9.26362779 -0.16053089 6.29737414 -1 3 C-0.67 2.01 -0.34 1.02 0 0 Z " fill="#FFC880" transform="translate(42,189)"/>
<path d="M0 0 C0.66 0 1.32 0 2 0 C2 4.95 2 9.9 2 15 C1.01 14.67 0.02 14.34 -1 14 C-2.12029814 8.51053913 -1.79217969 5.16569441 0 0 Z " fill="#FFF6B4" transform="translate(470,186)"/>
<path d="M0 0 C0.33 0 0.66 0 1 0 C1.16858098 2.0831793 1.33479255 4.16655044 1.5 6.25 C1.5928125 7.41015625 1.685625 8.5703125 1.78125 9.765625 C1.94404644 12.17268658 2 14.58743951 2 17 C1.01 17 0.02 17 -1 17 C-0.95359375 16.39671875 -0.9071875 15.7934375 -0.859375 15.171875 C-0.52189688 9.91586667 -0.52189688 9.91586667 -3 5.4375 C-3.66 4.963125 -4.32 4.48875 -5 4 C-4.67 3.34 -4.34 2.68 -4 2 C-2.515 2.99 -2.515 2.99 -1 4 C-0.67 2.68 -0.34 1.36 0 0 Z " fill="#FFD087" transform="translate(466,124)"/>
<path d="M0 0 C9.59453303 4.03872437 9.59453303 4.03872437 13 7 C10.26980214 8.06528748 9.20701188 8.07998186 6.421875 7.00390625 C5.54015625 6.52824219 4.6584375 6.05257812 3.75 5.5625 C2.85796875 5.08941406 1.9659375 4.61632813 1.046875 4.12890625 C0.37140625 3.75636719 -0.3040625 3.38382813 -1 3 C-0.67 2.01 -0.34 1.02 0 0 Z " fill="#FFFCBB" transform="translate(413,55)"/>
<path d="M0 0 C0.99 0.33 1.98 0.66 3 1 C3.103125 2.11375 3.20625 3.2275 3.3125 4.375 C3.539375 5.57125 3.76625 6.7675 4 8 C4.99 8.66 5.98 9.32 7 10 C5.68 10 4.36 10 3 10 C3 10.66 3 11.32 3 12 C2.01 11.67 1.02 11.34 0 11 C0 7.37 0 3.74 0 0 Z " fill="#FFE399" transform="translate(465,209)"/>
<path d="M0 0 C1.13968669 3.41906007 0.78304639 4.5545959 0 8 C-0.165 9.175625 -0.33 10.35125 -0.5 11.5625 C-0.87221691 14.12149123 -1.30495353 16.51769118 -2 19 C-2.99 18.67 -3.98 18.34 -5 18 C-4.35702496 15.37426939 -3.71075589 12.74942697 -3.0625 10.125 C-2.88009766 9.37863281 -2.69769531 8.63226563 -2.50976562 7.86328125 C-1.11328125 2.2265625 -1.11328125 2.2265625 0 0 Z " fill="#FFFDCF" transform="translate(48,107)"/>
<path d="M0 0 C0.66 0.33 1.32 0.66 2 1 C0.33846988 6.85659906 -1.47041916 12.4590134 -4 18 C-4.66 18 -5.32 18 -6 18 C-6 16.68 -6 15.36 -6 14 C-5.34 14 -4.68 14 -4 14 C-3.67 11.69 -3.34 9.38 -3 7 C-2.34 7 -1.68 7 -1 7 C-1.020625 6.030625 -1.04125 5.06125 -1.0625 4.0625 C-1 1 -1 1 0 0 Z " fill="#FFFFBF" transform="translate(466,402)"/>
<path d="M0 0 C0.66 0.33 1.32 0.66 2 1 C2.23268915 7.28260706 1.40454548 12.88019467 0 19 C-0.66 18.67 -1.32 18.34 -2 18 C-1.48758893 11.97099313 -0.930215 5.97995357 0 0 Z " fill="#FFFFB5" transform="translate(468,382)"/>
<path d="M0 0 C2.08554278 3.42624885 2.26953755 6.14910816 2.25 10.125 C2.25515625 11.17945313 2.2603125 12.23390625 2.265625 13.3203125 C2 16 2 16 0 18 C-0.96604701 14.75684218 -1.13419024 11.81491334 -1.125 8.4375 C-1.12757812 7.48746094 -1.13015625 6.53742188 -1.1328125 5.55859375 C-1 3 -1 3 0 0 Z " fill="#FFFFD8" transform="translate(41,157)"/>
<path d="M0 0 C3 3.75 3 3.75 3 6 C3.66 6 4.32 6 5 6 C5.66 8.31 6.32 10.62 7 13 C5.140625 12.84765625 5.140625 12.84765625 3 12 C1.734375 9.49609375 1.734375 9.49609375 0.75 6.4375 C0.41484375 5.42558594 0.0796875 4.41367188 -0.265625 3.37109375 C-0.50796875 2.58863281 -0.7503125 1.80617188 -1 1 C-0.67 0.67 -0.34 0.34 0 0 Z " fill="#FFFFAB" transform="translate(454,89)"/>
<path d="M0 0 C4.95 0 9.9 0 15 0 C14.34 1.32 13.68 2.64 13 4 C6.25 3.125 6.25 3.125 4 2 C2.68 2 1.36 2 0 2 C0 1.34 0 0.68 0 0 Z " fill="#FFFFCF" transform="translate(223,45)"/>
<path d="M0 0 C0.33 0 0.66 0 1 0 C1 1.65 1 3.3 1 5 C1.66 5 2.32 5 3 5 C3.66 3.68 4.32 2.36 5 1 C6.61949011 3.57213134 7.04408751 4.67669159 6.625 7.75 C6.41875 8.4925 6.2125 9.235 6 10 C5.34 10 4.68 10 4 10 C3.67 9.67 3.34 9.34 3 9 C2.01 9.495 2.01 9.495 1 10 C-0.1577506 6.52674819 -0.06866652 3.63932552 0 0 Z " fill="#FFF2A9" transform="translate(41,375)"/>
<path d="M0 0 C0.66 0.33 1.32 0.66 2 1 C2 4.96 2 8.92 2 13 C1.01 12.67 0.02 12.34 -1 12 C-1.33 9.03 -1.66 6.06 -2 3 C-1.34 3 -0.68 3 0 3 C0 2.01 0 1.02 0 0 Z " fill="#FFFBB1" transform="translate(470,202)"/>
<path d="M0 0 C0.99 0.33 1.98 0.66 3 1 C0.66666667 5.66666667 -1.66666667 10.33333333 -4 15 C-4.99 15 -5.98 15 -7 15 C-6.06254786 12.4039787 -5.19723851 10.25476641 -3.5 8.0625 C-1.65299252 5.52286471 -0.88476994 2.99460595 0 0 Z " fill="#FFCE85" transform="translate(60,88)"/>
<path d="M0 0 C-2.5688691 2.5688691 -4.53424831 2.30586256 -8.0234375 2.6484375 C-10.60262079 3.10718552 -12.12669111 4.20474565 -14 6 C-14 5.34 -14 4.68 -14 4 C-14.99 3.67 -15.98 3.34 -17 3 C-3.5234375 -1.76171875 -3.5234375 -1.76171875 0 0 Z " fill="#FFFDCB" transform="translate(121,50)"/>
<path d="M0 0 C1.39456452 0.00667256 2.78911118 0.01863093 4.18359375 0.03515625 C4.89451172 0.03966797 5.60542969 0.04417969 6.33789062 0.04882812 C8.09899388 0.06064761 9.86005411 0.07858362 11.62109375 0.09765625 C11.62109375 0.75765625 11.62109375 1.41765625 11.62109375 2.09765625 C2.06815257 3.41530331 2.06815257 3.41530331 -2.37890625 3.09765625 C-3.03890625 2.43765625 -3.69890625 1.77765625 -4.37890625 1.09765625 C-3.37890625 0.09765625 -3.37890625 0.09765625 0 0 Z " fill="#FFFCBF" transform="translate(140.37890625,45.90234375)"/>
<path d="M0 0 C1.65 0 3.3 0 5 0 C5.33 0.66 5.66 1.32 6 2 C8.52733235 2.65555119 8.52733235 2.65555119 11 3 C11 3.66 11 4.32 11 5 C8.69 5.33 6.38 5.66 4 6 C3.67 5.01 3.34 4.02 3 3 C0.98491642 2.26676204 0.98491642 2.26676204 -1 2 C-0.67 1.34 -0.34 0.68 0 0 Z " fill="#FFC87F" transform="translate(329,470)"/>
<path d="M0 0 C2.92987626 5.27377728 3.11710798 10.02749309 3 16 C2.34 15.67 1.68 15.34 1 15 C0.33203125 12.890625 0.33203125 12.890625 -0.1875 10.25 C-0.36667969 9.38890625 -0.54585937 8.5278125 -0.73046875 7.640625 C-1.01547015 4.84843739 -0.68655974 2.70728521 0 0 Z " fill="#FFFFCF" transform="translate(45,396)"/>
<path d="M0 0 C0.66 0.33 1.32 0.66 2 1 C2.08159574 5.16138263 1.98248524 8.9472484 1 13 C-1.92965912 10.07034088 -2.94133569 7.319947 -3.125 3.1875 C-3.08375 2.465625 -3.0425 1.74375 -3 1 C-2.01 2.485 -2.01 2.485 -1 4 C-0.67 2.68 -0.34 1.36 0 0 Z " fill="#FFF89A" transform="translate(470,258)"/>
<path d="M0 0 C0 2.97 0 5.94 0 9 C-1.32 9 -2.64 9 -4 9 C-4 6.36 -4 3.72 -4 1 C-2 0 -2 0 0 0 Z " fill="#FFE69C" transform="translate(44,212)"/>
<path d="M0 0 C8.07029553 -0.11547323 15.97667603 0.09958689 24 1 C21.11390973 2.64054442 19.05511238 3.24936376 15.7421875 3.23046875 C14.95199219 3.22853516 14.16179687 3.22660156 13.34765625 3.22460938 C12.53167969 3.21236328 11.71570313 3.20011719 10.875 3.1875 C10.05128906 3.18685547 9.22757812 3.18621094 8.37890625 3.18554688 C2.28127596 3.14063798 2.28127596 3.14063798 0 2 C0 1.34 0 0.68 0 0 Z " fill="#FFC38D" transform="translate(313,47)"/>
<path d="M0 0 C1.2065625 0.0309375 1.2065625 0.0309375 2.4375 0.0625 C-0.99611902 3.69809661 -4.3598607 6.42363346 -8.5625 9.0625 C-8.5625 8.0725 -8.5625 7.0825 -8.5625 6.0625 C-7.2425 5.7325 -5.9225 5.4025 -4.5625 5.0625 C-4.418125 4.423125 -4.27375 3.78375 -4.125 3.125 C-3.30589691 0.12162199 -3.19313651 0.07788138 0 0 Z " fill="#FFFFD1" transform="translate(433.5625,452.9375)"/>
<path d="M0 0 C0.66 0.33 1.32 0.66 2 1 C2 2.65 2 4.3 2 6 C2.99 6 3.98 6 5 6 C4.625 7.9375 4.625 7.9375 4 10 C3.01 10.495 3.01 10.495 2 11 C1.67 11.99 1.34 12.98 1 14 C0.01 13.67 -0.98 13.34 -2 13 C-1.34 13 -0.68 13 0 13 C0 8.71 0 4.42 0 0 Z " fill="#FFE39B" transform="translate(44,264)"/>
<path d="M0 0 C2.31309705 0.11341637 4.62550185 0.24103807 6.9375 0.375 C8.86916016 0.47941406 8.86916016 0.47941406 10.83984375 0.5859375 C12.40412109 0.79089844 12.40412109 0.79089844 14 1 C14.33 1.66 14.66 2.32 15 3 C10.38 3 5.76 3 1 3 C0.67 2.01 0.34 1.02 0 0 Z " fill="#FFFFC8" transform="translate(202,45)"/>
<path d="M0 0 C1.41805831 0.28482368 2.83440379 0.57818144 4.25 0.875 C5.03890625 1.03742188 5.8278125 1.19984375 6.640625 1.3671875 C8.96831144 1.99150075 10.89031952 2.84838542 13 4 C12.67 4.66 12.34 5.32 12 6 C6.06 5.01 6.06 5.01 0 4 C0 2.68 0 1.36 0 0 Z " fill="#FFD186" transform="translate(98,463)"/>
<path d="M0 0 C-1.78881736 1.00508801 -3.58114696 2.00392736 -5.375 3 C-6.37273437 3.556875 -7.37046875 4.11375 -8.3984375 4.6875 C-11 6 -11 6 -13 6 C-13.33 5.01 -13.66 4.02 -14 3 C-12.5459375 2.814375 -12.5459375 2.814375 -11.0625 2.625 C-9.5465625 2.315625 -9.5465625 2.315625 -8 2 C-7.67 1.34 -7.34 0.68 -7 0 C-4.0262656 -1.09036928 -3.11592499 -1.03864166 0 0 Z " fill="#FFFFD3" transform="translate(424,463)"/>
<path d="M0 0 C0.33 1.32 0.66 2.64 1 4 C2.32 4 3.64 4 5 4 C5 4.66 5 5.32 5 6 C4.01 6 3.02 6 2 6 C2 7.32 2 8.64 2 10 C2.66 10 3.32 10 4 10 C3.67 11.32 3.34 12.64 3 14 C2.01 13.67 1.02 13.34 0 13 C0.020625 11.9275 0.04125 10.855 0.0625 9.75 C0.01345128 6.8070768 -0.28127127 4.77223939 -1 2 C-0.67 1.34 -0.34 0.68 0 0 Z " fill="#FFD57B" transform="translate(47,399)"/>
<path d="M0 0 C0 2.31 0 4.62 0 7 C-0.33 6.34 -0.66 5.68 -1 5 C-2.98 5 -4.96 5 -7 5 C-6.6875 3.0625 -6.6875 3.0625 -6 1 C-3 0 -3 0 0 0 Z " fill="#FFEFA3" transform="translate(472,288)"/>
<path d="M0 0 C0.66 0 1.32 0 2 0 C2 3.96 2 7.92 2 12 C1.01 12.495 1.01 12.495 0 13 C-0.63146072 8.97443789 -1.24001982 5.08033686 -1 1 C-0.67 0.67 -0.34 0.34 0 0 Z " fill="#FFFFD3" transform="translate(470,167)"/>
<path d="M0 0 C2.13908818 2.60410735 3.57743146 4.61945167 4 8 C3.5625 10.25 3.5625 10.25 3 12 C2.34 12 1.68 12 1 12 C-1.22923777 7.67265609 -0.92470553 4.71599818 0 0 Z " fill="#FFE8B0" transform="translate(41,147)"/>
<path d="M0 0 C0.66 0 1.32 0 2 0 C2 3.96 2 7.92 2 12 C1.34 12 0.68 12 0 12 C-0.33 13.32 -0.66 14.64 -1 16 C-1.02692484 13.70839681 -1.04636124 11.41670454 -1.0625 9.125 C-1.07410156 7.84882813 -1.08570313 6.57265625 -1.09765625 5.2578125 C-1 2 -1 2 0 0 Z " fill="#FFFF9F" transform="translate(470,339)"/>
<path d="M0 0 C1.21236328 0.01353516 1.21236328 0.01353516 2.44921875 0.02734375 C3.37154297 0.04474609 3.37154297 0.04474609 4.3125 0.0625 C4.6425 0.7225 4.9725 1.3825 5.3125 2.0625 C4.3225 2.0625 3.3325 2.0625 2.3125 2.0625 C1.6525 2.7225 0.9925 3.3825 0.3125 4.0625 C-2.41619407 4.02962417 -4.9841618 3.49852229 -7.6875 3.0625 C-7.6875 2.4025 -7.6875 1.7425 -7.6875 1.0625 C-4.80538698 0.10179566 -2.98899956 -0.04331883 0 0 Z " fill="#FFD57A" transform="translate(358.6875,472.9375)"/>
<path d="M0 0 C0.33 0.99 0.66 1.98 1 3 C1.99 2.67 2.98 2.34 4 2 C3 5 3 5 2 7 C1.32136945 8.9959722 0.65358081 10.99568551 0 13 C-1.76462683 9.91190305 -2 8.76687864 -2 5 C-1.34 5 -0.68 5 0 5 C0 3.35 0 1.7 0 0 Z " fill="#FFD477" transform="translate(467,378)"/>
<path d="M0 0 C0.99 0.99 1.98 1.98 3 3 C2.01 3.495 2.01 3.495 1 4 C1.33 6.97 1.66 9.94 2 13 C1.67 12.34 1.34 11.68 1 11 C0.34 11 -0.32 11 -1 11 C-1.33 8.36 -1.66 5.72 -2 3 C-1.34 3 -0.68 3 0 3 C0 2.01 0 1.02 0 0 Z " fill="#FFD97E" transform="translate(43,369)"/>
<path d="M0 0 C3.3 0 6.6 0 10 0 C9.67 0.99 9.34 1.98 9 3 C6.36 3.33 3.72 3.66 1 4 C0.67 2.68 0.34 1.36 0 0 Z " fill="#FFFF9A" transform="translate(276,45)"/>
<path d="M0 0 C5.61 0.66 11.22 1.32 17 2 C17 2.33 17 2.66 17 3 C11.06 3 5.12 3 -1 3 C-0.67 2.01 -0.34 1.02 0 0 Z " fill="#FFF3D1" transform="translate(342,474)"/>
<path d="M0 0 C-1.5 1.5625 -1.5 1.5625 -4 3 C-6.77437543 2.96823234 -9.25286467 2.50364148 -12 2 C-12 1.34 -12 0.68 -12 0 C-7.6835078 -0.76173392 -4.25566547 -1.16063604 0 0 Z " fill="#FFFFBD" transform="translate(298,46)"/>
<path d="M0 0 C5.11310018 -0.08970351 9.96109772 -0.0283474 15 1 C15.33 1.66 15.66 2.32 16 3 C14.08404032 3.08133791 12.16708068 3.13934367 10.25 3.1875 C8.64898437 3.23970703 8.64898437 3.23970703 7.015625 3.29296875 C3.69972145 2.97082786 2.40983327 2.22851086 0 0 Z " fill="#FFFF82" transform="translate(213,45)"/>
<path d="M0 0 C3.63 0 7.26 0 11 0 C6.577168 3.317124 5.28089024 3.30466674 0 3 C0 2.01 0 1.02 0 0 Z " fill="#FFDD7D" transform="translate(214,474)"/>
<path d="M0 0 C4.62 0.66 9.24 1.32 14 2 C14 2.33 14 2.66 14 3 C9.05 3 4.1 3 -1 3 C-0.67 2.01 -0.34 1.02 0 0 Z " fill="#FFFFBD" transform="translate(240,45)"/>
<path d="M0 0 C0.66 0.33 1.32 0.66 2 1 C2 4.63 2 8.26 2 12 C1.01 12.495 1.01 12.495 0 13 C-1.28571429 4.57142857 -1.28571429 4.57142857 0 0 Z " fill="#FFFFD9" transform="translate(470,351)"/>
<path d="M0 0 C0.99 0.495 0.99 0.495 2 1 C2.90300285 5.26874073 3.28273754 8.80194987 2 13 C1.34 13.99 0.68 14.98 0 16 C0 10.72 0 5.44 0 0 Z " fill="#FFCE81" transform="translate(468,159)"/>
<path d="M0 0 C1.17571451 3.67410785 1.07366746 7.16929183 1 11 C0.34 11 -0.32 11 -1 11 C-2 4.375 -2 4.375 -2 1 C-1.34 0.67 -0.68 0.34 0 0 Z " fill="#FFFFC6" transform="translate(471,155)"/>
<path d="M0 0 C0.99 0.33 1.98 0.66 3 1 C2.01 1.33 1.02 1.66 0 2 C0 2.66 0 3.32 0 4 C-1.65532623 5.01866229 -3.32260138 6.01810813 -5 7 C-5.33 7.66 -5.66 8.32 -6 9 C-6.99 9 -7.98 9 -9 9 C-8.375 7.125 -8.375 7.125 -7 5 C-5.00827818 4.30899447 -3.00838196 3.64097297 -1 3 C-0.67 2.01 -0.34 1.02 0 0 Z " fill="#FFC786" transform="translate(92,60)"/>
<path d="M0 0 C0 0.66 0 1.32 0 2 C-4.29 2.66 -8.58 3.32 -13 4 C-13 3.01 -13 2.02 -13 1 C-8.59085217 -0.10228696 -4.51617599 -0.07654536 0 0 Z " fill="#FFFF9C" transform="translate(134,47)"/>
<path d="M0 0 C2.97 0 5.94 0 9 0 C9 0.99 9 1.98 9 3 C5.33694766 3.74926071 2.57644848 4.2380014 -1 3 C-0.67 2.01 -0.34 1.02 0 0 Z " fill="#FFFFD2" transform="translate(301,45)"/>
<path d="M0 0 C1.32 0.33 2.64 0.66 4 1 C4 1.66 4 2.32 4 3 C4.99 3 5.98 3 7 3 C7.66 4.32 8.32 5.64 9 7 C6.61435923 6.42415568 4.33317216 5.77772405 2 5 C2 4.34 2 3.68 2 3 C1.34 3 0.68 3 0 3 C0 2.01 0 1.02 0 0 Z " fill="#FFC784" transform="translate(421,62)"/>
<path d="M0 0 C0 0.66 0 1.32 0 2 C0.66 2.33 1.32 2.66 2 3 C-1.96 3 -5.92 3 -10 3 C-10.33 2.34 -10.66 1.68 -11 1 C-9.88625 1.020625 -8.7725 1.04125 -7.625 1.0625 C-4.58237918 1.01004102 -2.83730029 0 0 0 Z " fill="#FFFF9C" transform="translate(167,45)"/>
<path d="M0 0 C0.33 0.66 0.66 1.32 1 2 C-3.3164922 2.76173392 -6.74433453 3.16063604 -11 2 C-11 1.67 -11 1.34 -11 1 C-7.27569643 0.30710631 -3.78916254 -0.11144596 0 0 Z " fill="#FFFFBA" transform="translate(384,473)"/>
<path d="M0 0 C2.475 0.495 2.475 0.495 5 1 C5.33 1.99 5.66 2.98 6 4 C5.34 4.66 4.68 5.32 4 6 C1.875 5.625 1.875 5.625 0 5 C0 3.33333333 0 1.66666667 0 0 Z " fill="#FFCF84" transform="translate(389,467)"/>
<path d="M0 0 C0.99 0.33 1.98 0.66 3 1 C3 1.66 3 2.32 3 3 C4.423125 3.12375 4.423125 3.12375 5.875 3.25 C9 4 9 4 10.375 6.0625 C10.58125 6.701875 10.7875 7.34125 11 8 C7.51669784 7.35494404 4.90567134 6.01782732 2 4 C2 3.34 2 2.68 2 2 C1.34 2 0.68 2 0 2 C0 1.34 0 0.68 0 0 Z " fill="#FFFFF0" transform="translate(78,454)"/>
<path d="M0 0 C1.65 0 3.3 0 5 0 C4.01 1.485 4.01 1.485 3 3 C2.34 3 1.68 3 1 3 C0.67 3.99 0.34 4.98 0 6 C-0.99 5.67 -1.98 5.34 -3 5 C-3 4.34 -3 3.68 -3 3 C-2.34 3 -1.68 3 -1 3 C-0.67 2.01 -0.34 1.02 0 0 Z " fill="#FFFFBC" transform="translate(441,444)"/>
<path d="M0 0 C0.12375 0.639375 0.2475 1.27875 0.375 1.9375 C0.58125 2.618125 0.7875 3.29875 1 4 C1.66 4.33 2.32 4.66 3 5 C2.67 7.64 2.34 10.28 2 13 C1.34 13 0.68 13 0 13 C0.020625 12.05125 0.04125 11.1025 0.0625 10.125 C0.22551826 7.09333717 0.22551826 7.09333717 -1 5 C-0.72057545 3.32345271 -0.39171753 1.65391846 0 0 Z " fill="#FFC781" transform="translate(42,231)"/>
<path d="M0 0 C2 2 2 2 2.1953125 5.0390625 C2.17210937 6.22242188 2.14890625 7.40578125 2.125 8.625 C2.10695313 9.81351563 2.08890625 11.00203125 2.0703125 12.2265625 C2.04710937 13.14179688 2.02390625 14.05703125 2 15 C1.67 15 1.34 15 1 15 C0.63684334 13.0641649 0.28477269 11.12624752 -0.0625 9.1875 C-0.25972656 8.10855469 -0.45695312 7.02960938 -0.66015625 5.91796875 C-1 3 -1 3 0 0 Z " fill="#FFFFBE" transform="translate(469,140)"/>
<path d="M0 0 C6.75 -0.125 6.75 -0.125 9 1 C9 1.66 9 2.32 9 3 C6.03 2.67 3.06 2.34 0 2 C0 1.34 0 0.68 0 0 Z " fill="#FFC874" transform="translate(282,473)"/>
<path d="M0 0 C1.98 0.99 1.98 0.99 4 2 C3.67 3.65 3.34 5.3 3 7 C2.01 6.67 1.02 6.34 0 6 C0 4.02 0 2.04 0 0 Z " fill="#FFDA85" transform="translate(468,298)"/>
<path d="M0 0 C3.49234244 -0.09978121 6.59437148 0.22157062 10 1 C9.67 1.99 9.34 2.98 9 4 C6.36 3.67 3.72 3.34 1 3 C0.67 2.01 0.34 1.02 0 0 Z " fill="#FFFFA6" transform="translate(366,46)"/>
<path d="M0 0 C0 1.98 0 3.96 0 6 C-2.4375 5.1875 -2.4375 5.1875 -5 4 C-5.33 3.01 -5.66 2.02 -6 1 C-1.125 0 -1.125 0 0 0 Z " fill="#FFCF85" transform="translate(350,470)"/>
<path d="M0 0 C3 1 3 1 4.25 2.8125 C5.11637742 5.33943414 4.88492145 6.52221994 4 9 C0 3.375 0 3.375 0 0 Z " fill="#FFFFC2" transform="translate(51,420)"/>
<path d="M0 0 C0.33 0 0.66 0 1 0 C1 3.3 1 6.6 1 10 C0.01 9.01 -0.98 8.02 -2 7 C-1.56521739 1.56521739 -1.56521739 1.56521739 0 0 Z " fill="#FFD9A0" transform="translate(44,329)"/>
<path d="M0 0 C7.42857143 -0.28571429 7.42857143 -0.28571429 11 2 C10.01 2 9.02 2 8 2 C8 2.66 8 3.32 8 4 C5.36 3.34 2.72 2.68 0 2 C0 1.34 0 0.68 0 0 Z " fill="#FFCB61" transform="translate(270,473)"/>
<path d="M0 0 C0.99 0.33 1.98 0.66 3 1 C3 1.66 3 2.32 3 3 C3.639375 3.268125 4.27875 3.53625 4.9375 3.8125 C7 5 7 5 8 8 C4.63820226 6.55922954 2.40843732 4.75249979 0 2 C0 1.34 0 0.68 0 0 Z " fill="#FFFFE5" transform="translate(68,445)"/>
<path d="M0 0 C0.66 0.33 1.32 0.66 2 1 C2.85056945 4.55692677 3.16909807 6.49270578 2 10 C1.34 10 0.68 10 0 10 C-0.19412181 8.52168779 -0.38012131 7.04230684 -0.5625 5.5625 C-0.66691406 4.73878906 -0.77132812 3.91507812 -0.87890625 3.06640625 C-0.91886719 2.38449219 -0.95882812 1.70257813 -1 1 C-0.67 0.67 -0.34 0.34 0 0 Z " fill="#FFCD81" transform="translate(42,311)"/>
<path d="M0 0 C0.99 0.33 1.98 0.66 3 1 C3 2.98 3 4.96 3 7 C2.01 7.33 1.02 7.66 0 8 C0 5.36 0 2.72 0 0 Z " fill="#FFF2BF" transform="translate(469,272)"/>
<path d="M0 0 C0.33 0.66 0.66 1.32 1 2 C1.99 1.67 2.98 1.34 4 1 C4.625 2.8125 4.625 2.8125 5 5 C4.01 6.485 4.01 6.485 3 8 C2.34 8 1.68 8 1 8 C0.67 5.36 0.34 2.72 0 0 Z " fill="#FFE89A" transform="translate(52,101)"/>
<path d="M0 0 C2.475 0.99 2.475 0.99 5 2 C5 2.66 5 3.32 5 4 C5.66 4 6.32 4 7 4 C7.33 4.99 7.66 5.98 8 7 C7.34 7.66 6.68 8.32 6 9 C5.7525 8.030625 5.505 7.06125 5.25 6.0625 C4.63125 4.5465625 4.63125 4.5465625 4 3 C1.96756452 2.03122943 1.96756452 2.03122943 0 2 C0 1.34 0 0.68 0 0 Z " fill="#FFD086" transform="translate(432,71)"/>
<path d="M0 0 C3.465 1.98 3.465 1.98 7 4 C6.67 4.66 6.34 5.32 6 6 C4.68 5.67 3.36 5.34 2 5 C2 4.34 2 3.68 2 3 C1.01 3 0.02 3 -1 3 C-0.67 2.01 -0.34 1.02 0 0 Z " fill="#FFFFB6" transform="translate(426,62)"/>
<path d="M0 0 C0.33 0.99 0.66 1.98 1 3 C1.66 3 2.32 3 3 3 C3 4.65 3 6.3 3 8 C2.01 8 1.02 8 0 8 C0 5.36 0 2.72 0 0 Z " fill="#FFFFC0" transform="translate(469,361)"/>
<path d="M0 0 C0.66 0 1.32 0 2 0 C2 2.64 2 5.28 2 8 C1.01 8.495 1.01 8.495 0 9 C-1.125 3.375 -1.125 3.375 0 0 Z " fill="#FFFFA7" transform="translate(470,186)"/>
<path d="M0 0 C2 1.375 2 1.375 4 3 C4 3.66 4 4.32 4 5 C2.35 5.66 0.7 6.32 -1 7 C-1.625 5.1875 -1.625 5.1875 -2 3 C-1.34 2.01 -0.68 1.02 0 0 Z " fill="#FFCB84" transform="translate(49,111)"/>
<path d="M0 0 C0.99 0.33 1.98 0.66 3 1 C3 1.99 3 2.98 3 4 C2.34 4 1.68 4 1 4 C0.67 5.65 0.34 7.3 0 9 C-0.66 8.67 -1.32 8.34 -2 8 C-1.125 1.125 -1.125 1.125 0 0 Z " fill="#FFFF8F" transform="translate(49,104)"/>
<path d="M0 0 C0.33 0.66 0.66 1.32 1 2 C-3.75 6 -3.75 6 -6 6 C-6.33 6.66 -6.66 7.32 -7 8 C-7 7.01 -7 6.02 -7 5 C-4.76671858 3.00180084 -2.68345751 1.34172876 0 0 Z " fill="#FFFFF8" transform="translate(81,65)"/>
<path d="M0 0 C-3.47325181 1.1577506 -6.36067448 1.06866652 -10 1 C-10 0.34 -10 -0.32 -10 -1 C-6.18510326 -2.46726798 -3.70988378 -1.43336419 0 0 Z " fill="#FFC46B" transform="translate(270,475)"/>
<path d="M0 0 C2.3431213 0.25561323 4.67843403 0.59270772 7 1 C7.33 1.66 7.66 2.32 8 3 C5.03 3 2.06 3 -1 3 C-0.67 2.01 -0.34 1.02 0 0 Z " fill="#FFFFAA" transform="translate(132,473)"/>
<path d="M0 0 C1.7074998 1.28062485 3.37373596 2.61767557 5 4 C5 4.66 5 5.32 5 6 C5.66 6 6.32 6 7 6 C7 6.66 7 7.32 7 8 C5.68 7.34 4.36 6.68 3 6 C3 5.34 3 4.68 3 4 C2.01 3.67 1.02 3.34 0 3 C0 2.01 0 1.02 0 0 Z " fill="#FFFFFF" transform="translate(61,437)"/>
<path d="M0 0 C0.99 0.33 1.98 0.66 3 1 C3 3.64 3 6.28 3 9 C2.01 9.495 2.01 9.495 1 10 C0.67 6.7 0.34 3.4 0 0 Z " fill="#FFFFB8" transform="translate(469,305)"/>
<path d="M0 0 C4.455 0.99 4.455 0.99 9 2 C4.82091936 4.08954032 4.19589427 4.16552619 0 3 C0 2.01 0 1.02 0 0 Z " fill="#FFC564" transform="translate(168,473)"/>
<path d="M0 0 C0.33 0.66 0.66 1.32 1 2 C1.99 2 2.98 2 4 2 C4.33 3.98 4.66 5.96 5 8 C2.5 5.6875 2.5 5.6875 0 3 C0 2.01 0 1.02 0 0 Z " fill="#FFFFD9" transform="translate(56,429)"/>
<path d="M0 0 C0.66 0 1.32 0 2 0 C2.9765625 6.0546875 2.9765625 6.0546875 3 8 C2.34 8.66 1.68 9.32 1 10 C0.67 6.7 0.34 3.4 0 0 Z " fill="#FFFFBE" transform="translate(42,386)"/>
<path d="M0 0 C3 0 3 0 5.1875 2 C5.785625 2.66 6.38375 3.32 7 4 C5.02 4.33 3.04 4.66 1 5 C0.67 3.35 0.34 1.7 0 0 Z " fill="#FFD286" transform="translate(42,337)"/>
<path d="M0 0 C0.99 0 1.98 0 3 0 C3.33 0.66 3.66 1.32 4 2 C4.99 2 5.98 2 7 2 C6.67 2.99 6.34 3.98 6 5 C3.03 4.505 3.03 4.505 0 4 C0 2.68 0 1.36 0 0 Z " fill="#FFEEA6" transform="translate(465,294)"/>
<path d="M0 0 C1.5 1.375 1.5 1.375 3 3 C3 4.33333333 3 5.66666667 3 7 C2.01 7.33 1.02 7.66 0 8 C-0.98120464 4.94736336 -0.98120464 3.05263664 0 0 Z " fill="#FFE696" transform="translate(465,268)"/>
<path d="M0 0 C0.66 0.33 1.32 0.66 2 1 C2.1875 3.375 2.1875 3.375 2 6 C1.01 6.66 0.02 7.32 -1 8 C-0.67 5.36 -0.34 2.72 0 0 Z " fill="#FFCF78" transform="translate(43,144)"/>
<path d="M0 0 C0.185625 0.9590625 0.185625 0.9590625 0.375 1.9375 C0.684375 2.9584375 0.684375 2.9584375 1 4 C1.66 4.33 2.32 4.66 3 5 C2.01 5.495 2.01 5.495 1 6 C-0.13350534 8.01669827 -0.13350534 8.01669827 -1 10 C-2.31223496 6.06329512 -1.24296256 3.87511856 0 0 Z " fill="#FFC982" transform="translate(47,119)"/>
<path d="M0 0 C3.63 0.33 7.26 0.66 11 1 C6.67161176 3.16419412 5.50257649 3.20068706 1 2 C0.67 1.34 0.34 0.68 0 0 Z " fill="#FFFFCD" transform="translate(378,47)"/>
<path d="M0 0 C0 0.66 0 1.32 0 2 C-2.31 2 -4.62 2 -7 2 C-7 1.34 -7 0.68 -7 0 C-4.3333581 -1.33332095 -2.83319697 -0.67102033 0 0 Z " fill="#FFFFB6" transform="translate(199,46)"/>
<path d="" fill="#FFFFFF" transform="translate(0,0)"/>
<path d="" fill="#FFFFFF" transform="translate(0,0)"/>
</svg>
